<svg xmlns="http://www.w3.org/2000/svg" width="161" height="161" fill="none" viewBox="0 0 161 161">
  <circle cx="80.006" cy="80.006" r="77.184" fill="#F8DBBA" stroke="#FFB932" stroke-width="4.948" transform="rotate(.251 80.006 80.006)"/>
  <path fill="#FFB932" fill-rule="evenodd" d="M154.523 75.406c-3.537-.625-7.361-.951-11.465-.969-7.57-.033-14.304 1.199-20.198 2.855a61.874 61.874 0 0 0-16.439 8.76c8.399 2.56 14.692 5.95 18.875 11.016 3.763 5.062 5.836 11.8 5.801 19.79-.041 9.251-3.018 16.808-8.508 22.251-5.491 5.442-13.071 7.932-22.743 7.89-10.093-.044-17.651-2.601-23.094-8.091-5.445-5.071-7.934-12.651-7.892-22.323.074-16.82 8.967-31.08 27.101-42.775 15.513-10.005 33.776-15.689 55.053-17.052a80.37 80.37 0 0 1 3.509 18.648Z" clip-rule="evenodd"/>
</svg>
