<svg width="661" height="527" viewBox="0 0 661 527" fill="none" xmlns="http://www.w3.org/2000/svg">
<path d="M306.15 288.389C303.846 286.853 300.071 283.59 298.471 282.15C294.631 282.15 272.873 277.99 262.474 275.91C258.634 278.214 264.074 285.189 267.273 288.389C276.873 282.15 296.551 292.229 303.27 294.629C308.646 296.549 309.35 295.429 309.03 294.629C309.03 293.189 308.454 289.925 306.15 288.389Z" fill="black"/>
<path d="M169.361 376.222C173.201 375.838 178.001 379.262 179.92 381.022L163.122 399.26L143.443 408.38C144.403 403.74 146.323 393.885 146.323 391.581C146.323 388.701 164.562 376.702 169.361 376.222Z" fill="#EE2914"/>
<path d="M192.399 427.578L191.919 426.618C189.2 425.978 183.76 425.274 183.76 427.578C183.76 430.458 188.08 432.378 190 432.378C191.535 432.378 191.919 430.458 191.919 429.498C192.239 429.178 192.783 428.346 192.399 427.578Z" fill="#EE2914"/>
<path d="M222.637 441.017C222.637 439.097 227.116 428.378 229.356 423.258L222.637 390.141L216.877 392.061C212.27 392.829 213.997 402.3 215.437 406.94C218.509 410.395 217.677 428.538 216.877 437.177C218.797 439.257 222.637 442.937 222.637 441.017Z" fill="black"/>
<path d="M100.726 353.664C127.604 356.352 135.284 340.385 135.764 332.066L95.4468 291.749C67.417 310.179 55.6099 334.305 53.2101 344.065C54.33 347.264 55.4179 357.12 50.8103 370.943C46.2026 384.765 57.8497 417.019 64.2492 431.418C65.8491 437.657 69.8168 450.616 72.8885 452.536C76.7282 454.936 77.6882 453.016 89.6872 452.536C99.2865 452.152 106.806 420.699 109.366 405.02C95.1588 390.429 97.6866 364.703 100.726 353.664Z" fill="black"/>
<path d="M191.919 402.14C192.559 398.62 192.879 390.813 189.039 387.741C185.2 384.669 181.36 381.982 179.92 381.022C170.251 384.805 151.965 394.554 147.059 406.205C150.148 395.388 157.544 379.651 170.321 376.702C160.722 375.422 140.371 376.702 135.764 392.061C133.044 397.66 129.236 410.875 135.764 418.939C138.643 422.778 146.227 430.362 153.522 429.978L191.919 402.14Z" fill="black"/>
<path d="M160.242 0.411865V159.279" stroke="black" stroke-width="4.79962"/>
<circle r="149.748" transform="matrix(-1 0 0 1 160.242 308.067)" stroke="black" stroke-width="4.79962"/>
<path d="M164.561 230.794C166.865 237.321 230.796 262.951 262.474 274.95C271.689 284.166 290.631 283.91 298.951 282.63C280.136 260.359 199.599 213.515 161.681 192.877C132.5 205.548 106.006 264.711 96.4066 292.709C79.8959 321.507 94.3268 339.905 103.606 345.505C128.18 348.576 134.644 337.185 134.804 331.106C149.01 330.722 190.959 305.348 210.158 292.709C202.094 303.076 211.918 338.625 217.837 355.104C219.277 362.783 221.773 380.638 220.237 390.621C218.701 400.604 225.037 416.539 228.396 423.259C231.852 418.651 232.716 399.58 232.716 390.621L238.955 312.867C239.595 305.508 239.243 286.181 232.716 267.751C226.188 249.32 174.96 268.071 150.162 279.75L164.561 230.794Z" fill="#F5D7B8"/>
<path d="M184.24 398.301C176.56 394.845 171.761 399.74 170.321 402.62C170.321 413.371 161.681 417.659 157.362 418.459C153.522 409.628 149.682 414.779 148.243 418.459C147.859 426.138 152.562 429.018 154.962 429.498C152.274 431.418 138.483 427.738 131.924 425.658C124.724 407.42 112.245 406.94 108.406 402.62C105.334 399.164 81.8478 380.062 70.4887 370.943C64.4091 360.863 51.4822 340.609 48.4104 340.225C45.3387 339.841 29.2119 312.547 21.5325 298.948C20.0927 298.468 16.8289 297.508 15.293 297.508C13.7571 297.508 8.89352 294.949 6.65372 293.669C-1.79364 293.285 -0.0657654 305.988 1.8541 312.387L6.65372 314.307C7.45364 316.387 9.91745 320.547 13.3732 320.547C16.8289 320.547 20.2526 321.507 21.5325 321.987C24.0923 327.586 30.2679 340.609 34.4915 347.904C38.7152 355.2 46.8105 365.663 50.3303 369.983L60.8894 386.781C67.1289 394.141 80.5679 409.436 84.4076 411.739C88.2473 414.043 94.6468 421.979 97.3666 425.658C101.974 438.713 93.8468 448.697 89.2072 452.056C94.9668 453.496 118.485 450.616 123.285 450.616C127.124 450.616 128.724 453.816 129.044 455.416C141.523 477.974 169.169 522.899 179.92 522.131C190.671 521.363 202.958 493.013 207.758 478.934C209.198 474.934 212.749 465.111 215.437 457.816C218.125 450.52 213.357 444.537 210.638 442.457C207.278 442.777 199.982 443.225 197.679 442.457C195.375 441.689 195.119 445.017 195.279 446.777C193.999 446.937 191.439 447.929 191.439 450.616C191.439 453.304 194.959 458.776 196.719 461.176C197.999 460.376 200.462 460.888 200.078 469.335C199.695 477.782 186.48 492.373 179.92 498.613C171.921 485.334 155.73 458.104 154.962 455.416C154.194 452.728 152.402 446.617 151.602 443.897C153.682 441.977 158.898 438.425 163.121 439.577C167.345 440.729 178.32 441.977 183.28 442.457C186.352 442.457 188.719 436.697 189.519 433.818C187.599 433.818 182.8 426.138 184.24 427.098C185.392 427.866 189.519 427.418 191.439 427.098L192.879 423.259C193.519 422.779 194.991 421.435 195.759 419.899C196.527 418.363 193.199 416.699 191.439 416.059V402.62L184.24 398.301Z" fill="#F5D7B8"/>
<path d="M188.08 413.179C186.8 413.819 183.568 414.907 180.88 414.139C179.87 413.851 179.28 413.643 178.963 413.497C178.96 413.391 178.96 413.285 178.96 413.179C178.661 413.179 178.436 413.254 178.963 413.497C178.984 414.351 179.172 415.205 180.88 416.059C182.597 416.918 186.16 417.019 188.08 413.179Z" fill="black"/>
<path d="M352.29 290.604C354.612 289.056 358.417 285.768 360.029 284.317C363.898 284.317 385.824 280.125 396.303 278.029C400.172 280.351 394.69 287.38 391.466 290.604C381.793 284.317 361.963 294.473 355.192 296.892C349.775 298.826 349.066 297.698 349.388 296.892C349.388 295.441 349.969 292.152 352.29 290.604Z" fill="black"/>
<path d="M490.131 379.113C486.262 378.726 481.425 382.176 479.491 383.95L496.419 402.328L516.249 411.518C515.281 406.843 513.347 396.911 513.347 394.59C513.347 391.688 494.968 379.597 490.131 379.113Z" fill="#EE2914"/>
<path d="M466.916 430.864L467.399 429.897C470.14 429.252 475.622 428.542 475.622 430.864C475.622 433.766 471.269 435.701 469.334 435.701C467.786 435.701 467.399 433.766 467.399 432.799C467.077 432.476 466.529 431.638 466.916 430.864Z" fill="#EE2914"/>
<path d="M436.446 444.406C436.446 442.472 431.932 431.67 429.675 426.511L436.446 393.139L442.25 395.073C446.893 395.847 445.152 405.391 443.701 410.067C440.605 413.549 441.444 431.831 442.25 440.537C440.315 442.633 436.446 446.341 436.446 444.406Z" fill="black"/>
<path d="M559.294 356.381C532.209 359.09 524.471 343 523.987 334.617L564.614 293.99C592.86 312.562 604.758 336.874 607.176 346.708C606.047 349.932 604.951 359.863 609.594 373.793C614.237 387.722 602.501 420.223 596.052 434.733C594.44 441.021 590.441 454.079 587.346 456.014C583.477 458.432 582.51 456.498 570.418 456.014C560.745 455.627 553.168 423.932 550.588 408.132C564.905 393.429 562.357 367.505 559.294 356.381Z" fill="black"/>
<path d="M467.4 405.23C466.755 401.683 466.433 393.816 470.302 390.721C474.171 387.625 478.04 384.917 479.491 383.949C489.235 387.762 507.661 397.586 512.605 409.326C509.493 398.426 502.04 382.568 489.164 379.597C498.837 378.307 519.344 379.597 523.987 395.073C526.728 400.716 530.565 414.033 523.987 422.158C521.085 426.027 513.444 433.669 506.092 433.282L467.4 405.23Z" fill="black"/>
<path d="M499.321 0.411865V160.501" stroke="black" stroke-width="5.07652"/>
<circle cx="499.321" cy="310.434" r="150.78" stroke="black" stroke-width="5.07652"/>
<path d="M494.968 232.566C492.646 239.144 428.223 264.971 396.302 277.062C387.016 286.348 367.928 286.09 359.544 284.8C378.504 262.359 459.661 215.154 497.87 194.357C527.276 207.126 553.973 266.744 563.646 294.957C580.284 323.976 565.742 342.517 556.392 348.159C531.629 351.255 525.115 339.776 524.954 333.65C510.638 333.263 468.367 307.693 449.02 294.957C457.146 305.404 447.247 341.227 441.282 357.832C439.831 365.571 437.316 383.563 438.864 393.623C440.411 403.683 434.027 419.74 430.642 426.511C427.159 421.868 426.289 402.651 426.289 393.623L420.001 315.271C419.356 307.855 419.711 288.38 426.289 269.807C432.866 251.235 484.488 270.13 509.477 281.899L494.968 232.566Z" fill="#F5D7B8"/>
<path d="M475.138 401.361C482.876 397.879 487.713 402.812 489.164 405.714C489.164 416.548 497.87 420.869 502.222 421.675C506.092 412.775 509.961 417.967 511.412 421.675C511.799 429.413 507.059 432.315 504.641 432.799C507.349 434.733 521.246 431.025 527.856 428.929C535.111 410.551 547.686 410.067 551.555 405.714C554.651 402.232 578.317 382.982 589.764 373.793C595.89 363.636 608.917 343.226 612.012 342.839C615.107 342.452 631.358 314.948 639.097 301.245C640.548 300.761 643.836 299.794 645.384 299.794C646.932 299.794 651.833 297.214 654.09 295.925C662.602 295.538 660.861 308.338 658.926 314.787L654.09 316.722C653.284 318.818 650.801 323.009 647.319 323.009C643.836 323.009 640.386 323.976 639.097 324.46C636.517 330.103 630.294 343.226 626.038 350.577C621.782 357.929 613.624 368.473 610.077 372.826L599.437 389.753C593.149 397.169 579.607 412.582 575.738 414.903C571.869 417.225 565.42 425.221 562.679 428.929C558.036 442.085 566.226 452.145 570.901 455.53C565.097 456.981 541.398 454.079 536.562 454.079C532.693 454.079 531.08 457.304 530.758 458.916C518.183 481.648 490.325 526.918 479.491 526.144C468.657 525.37 456.275 496.802 451.439 482.615C449.988 478.585 446.409 468.686 443.7 461.334C440.992 453.983 445.796 447.953 448.537 445.857C451.922 446.18 459.274 446.631 461.595 445.857C463.917 445.083 464.175 448.437 464.014 450.21C465.303 450.371 467.883 451.371 467.883 454.079C467.883 456.788 464.336 462.302 462.563 464.72C461.273 463.914 458.79 464.43 459.177 472.942C459.564 481.454 472.881 496.157 479.491 502.445C487.552 489.064 503.867 461.624 504.641 458.916C505.415 456.208 507.22 450.049 508.026 447.308C505.93 445.374 500.675 441.795 496.419 442.955C492.162 444.116 481.103 445.374 476.105 445.857C473.01 445.857 470.624 440.053 469.818 437.152C471.752 437.152 476.589 429.413 475.138 430.38C473.977 431.154 469.818 430.703 467.883 430.38L466.432 426.511C465.787 426.028 464.304 424.673 463.53 423.126C462.756 421.578 466.11 419.901 467.883 419.256V405.714L475.138 401.361Z" fill="#F5D7B8"/>
<path d="M471.269 416.354C472.559 416.999 475.816 418.096 478.524 417.322C479.542 417.031 480.136 416.822 480.456 416.675C480.459 416.568 480.459 416.461 480.459 416.354C480.761 416.354 480.987 416.43 480.456 416.675C480.435 417.535 480.245 418.396 478.524 419.256C476.794 420.122 473.204 420.224 471.269 416.354Z" fill="black"/>
</svg>
