<svg xmlns="http://www.w3.org/2000/svg" width="1440" height="1005" fill="none" viewBox="0 0 1440 1005">
  <path fill="#FFB932" d="M0 127h1440v188H0z"/>
  <circle cx="159.5" cy="208.5" r="129.5" fill="#EE2914"/>
  <circle cx="418.5" cy="208.5" r="129.5" fill="#9DCCC9"/>
  <path fill="#FFB932" d="M160 108c-3.815 111.121-48.006 390.361-194.25 618.356v20.835c-60.936 88.053-146.245 207.161 0-20.835V108H160Z"/>
  <circle cx="677.5" cy="208.5" r="129.5" fill="#EE2914"/>
  <circle cx="937.5" cy="208.5" r="129.5" fill="#9DCCC9"/>
  <circle cx="1196.5" cy="208.5" r="129.5" fill="#EE2914"/>
  <path fill="#9DCCC9" d="M298.052 108 289 205l41-97h-31.948Zm519 13L808 218l41-97h-31.948Z"/>
  <path fill="#EE2914" d="m554.047 114.08-5.768 97.251L585.977 113l-31.93 1.08Zm517.773 11.215-5.04 91.289L1102.97 124l-31.15 1.295ZM280.169 109 289 206l-40-97h31.169Z"/>
  <path fill="#9DCCC9" d="m1058.17 121 8.83 97-40-97h31.17Zm-515.119 2.255 4.917 97.277L511.907 122l31.144 1.255Z"/>
  <path fill="#EE2914" d="m802.946 113.187 4.38 97.303-35.516-98.73 31.136 1.427Z"/>
  <path fill="#FFB932" d="M1296 127c4.33 130.085 54.46 456.982 220.39 723.889v24.391c69.13 103.081 165.92 242.52 0-24.391V127H1296Z"/>
  <path fill="#F8DBBA" d="M-3 0h1440v127H-3z"/>
</svg>
