<svg xmlns="http://www.w3.org/2000/svg" width="813" height="15" fill="none" viewBox="0 0 813 15">
  <path fill="#EE2914" fill-rule="evenodd" d="M31.815.3c.03.34.045.683.045 1.03 0 7.387-6.986 13.376-15.605 13.376S.649 8.717.649 1.33C.65.983.665.64.695.3h31.12Zm93.634 0c.03.34.046.683.046 1.03 0 7.387-6.987 13.376-15.606 13.376S94.283 8.717 94.283 1.33c0-.347.016-.69.046-1.03h31.12ZM63.026.3c.03.34.046.683.046 1.03 0 7.387-6.987 13.376-15.606 13.376S31.861 8.717 31.861 1.33c0-.347.015-.69.045-1.03h31.12Z" clip-rule="evenodd"/>
  <path fill="#EE2914" fill-rule="evenodd" d="M156.66.3c.031.34.046.683.046 1.03 0 7.387-6.987 13.376-15.606 13.376-8.618 0-15.605-5.989-15.605-13.376 0-.347.015-.69.045-1.03h31.12ZM94.238.3c.03.34.045.683.045 1.03 0 7.387-6.987 13.376-15.606 13.376-8.618 0-15.605-5.989-15.605-13.376 0-.347.015-.69.045-1.03h31.12Zm93.634 0c.03.34.045.683.045 1.03 0 7.387-6.987 13.376-15.606 13.376-8.618 0-15.605-5.989-15.605-13.376 0-.347.015-.69.045-1.03h31.121Zm31.211 0c.03.34.046.683.046 1.03 0 7.387-6.987 13.376-15.606 13.376S187.917 8.717 187.917 1.33c0-.347.016-.69.046-1.03h31.12Zm93.634 0c.03.34.046.683.046 1.03 0 7.387-6.987 13.376-15.606 13.376S281.551 8.717 281.551 1.33c0-.347.016-.69.046-1.03h31.12Z" clip-rule="evenodd"/>
  <path fill="#EE2914" fill-rule="evenodd" d="M250.294.3c.03.34.046.683.046 1.03 0 7.387-6.987 13.376-15.606 13.376S219.128 8.717 219.128 1.33c0-.347.016-.69.046-1.03h31.12Zm93.634 0c.03.34.046.683.046 1.03 0 7.387-6.987 13.376-15.606 13.376S312.762 8.717 312.762 1.33c0-.347.016-.69.046-1.03h31.12Z" clip-rule="evenodd"/>
  <path fill="#EE2914" fill-rule="evenodd" d="M281.506.3c.03.34.045.683.045 1.03 0 7.387-6.987 13.376-15.605 13.376-8.619 0-15.606-5.989-15.606-13.376 0-.347.015-.69.045-1.03h31.121Zm93.634 0c.03.34.045.683.045 1.03 0 7.387-6.987 13.376-15.605 13.376-8.619 0-15.606-5.989-15.606-13.376 0-.347.015-.69.045-1.03h31.121Zm31.211 0c.03.34.045.683.045 1.03 0 7.387-6.987 13.376-15.605 13.376-8.619 0-15.606-5.989-15.606-13.376 0-.347.015-.69.046-1.03h31.12Zm93.634 0c.03.34.045.683.045 1.03 0 7.387-6.986 13.376-15.605 13.376S468.819 8.717 468.819 1.33c0-.347.015-.69.046-1.03h31.12Zm-62.423 0c.03.34.046.683.046 1.03 0 7.387-6.987 13.376-15.606 13.376S406.396 8.717 406.396 1.33c0-.347.016-.69.046-1.03h31.12Zm93.634 0c.031.34.046.683.046 1.03 0 7.387-6.987 13.376-15.606 13.376S500.031 8.717 500.031 1.33c0-.347.015-.69.045-1.03h31.12Zm-62.422 0c.03.34.045.683.045 1.03 0 7.387-6.987 13.376-15.605 13.376-8.619 0-15.606-5.989-15.606-13.376 0-.347.015-.69.045-1.03h31.121Z" clip-rule="evenodd"/>
  <path fill="#EE2914" fill-rule="evenodd" d="M562.408.3c.03.34.045.683.045 1.03 0 7.387-6.987 13.376-15.605 13.376-8.619 0-15.606-5.989-15.606-13.376 0-.347.015-.69.045-1.03h31.121Zm31.211 0c.03.34.045.683.045 1.03 0 7.387-6.986 13.376-15.605 13.376S562.453 8.717 562.453 1.33c0-.347.015-.69.046-1.03h31.12Zm93.634 0c.03.34.045.683.045 1.03 0 7.387-6.987 13.376-15.605 13.376-8.619 0-15.606-5.989-15.606-13.376 0-.347.015-.69.045-1.03h31.121ZM624.83.3c.031.34.046.683.046 1.03 0 7.387-6.987 13.376-15.606 13.376S593.665 8.717 593.665 1.33c0-.347.015-.69.045-1.03h31.12Zm93.634 0c.03.34.046.683.046 1.03 0 7.387-6.987 13.376-15.606 13.376S687.298 8.717 687.298 1.33c0-.347.016-.69.046-1.03h31.12Z" clip-rule="evenodd"/>
  <path fill="#EE2914" fill-rule="evenodd" d="M656.042.3c.03.34.045.683.045 1.03 0 7.387-6.987 13.376-15.605 13.376-8.619 0-15.606-5.989-15.606-13.376 0-.347.015-.69.045-1.03h31.121Zm93.634 0c.03.34.045.683.045 1.03 0 7.387-6.987 13.376-15.606 13.376-8.618 0-15.605-5.989-15.605-13.376 0-.347.015-.69.045-1.03h31.121Zm31.211 0c.03.34.046.683.046 1.03 0 7.387-6.987 13.376-15.606 13.376S749.721 8.717 749.721 1.33c0-.347.016-.69.046-1.03h31.12Zm31.211 0c.031.34.046.683.046 1.03 0 7.387-6.987 13.376-15.606 13.376-8.618 0-15.605-5.989-15.605-13.376 0-.347.015-.69.045-1.03h31.12Z" clip-rule="evenodd"/>
</svg>
