<svg xmlns="http://www.w3.org/2000/svg" width="813" height="18" fill="none" viewBox="0 0 813 18">
  <path fill="#EE2914" fill-rule="evenodd" d="M31.822 17.468c.03-.396.045-.796.045-1.2C31.867 7.649 24.88.662 16.261.662 7.643.662.656 7.65.656 16.268c0 .404.015.804.045 1.2h31.12Zm93.634 0a15.9 15.9 0 0 0 .045-1.2c0-8.619-6.987-15.606-15.606-15.606-8.618 0-15.605 6.987-15.605 15.606 0 .404.015.804.045 1.2h31.121Zm-62.423 0c.03-.396.045-.796.045-1.2 0-8.619-6.986-15.606-15.605-15.606S31.867 7.65 31.867 16.268c0 .404.015.804.046 1.2h31.12Z" clip-rule="evenodd"/>
  <path fill="#EE2914" fill-rule="evenodd" d="M156.667 17.468a15.9 15.9 0 0 0 .045-1.2c0-8.619-6.987-15.606-15.605-15.606-8.619 0-15.606 6.987-15.606 15.606 0 .404.015.804.045 1.2h31.121Zm-62.423 0c.03-.396.046-.796.046-1.2C94.29 7.649 87.303.662 78.684.662S63.078 7.65 63.078 16.268c0 .404.016.804.046 1.2h31.12Z" clip-rule="evenodd"/>
  <path fill="#EE2914" fill-rule="evenodd" d="M187.878 17.468c.03-.396.046-.796.046-1.2 0-8.619-6.987-15.606-15.606-15.606s-15.606 6.987-15.606 15.606c0 .404.016.804.046 1.2h31.12Zm31.212 0a15.9 15.9 0 0 0 .045-1.2c0-8.619-6.987-15.606-15.606-15.606-8.618 0-15.605 6.987-15.605 15.606 0 .404.015.804.045 1.2h31.121Zm93.633 0c.031-.396.046-.796.046-1.2 0-8.619-6.987-15.606-15.606-15.606-8.618 0-15.605 6.987-15.605 15.606 0 .404.015.804.045 1.2h31.12Z" clip-rule="evenodd"/>
  <path fill="#EE2914" fill-rule="evenodd" d="M250.301 17.468a15.9 15.9 0 0 0 .045-1.2c0-8.619-6.987-15.606-15.605-15.606-8.619 0-15.606 6.987-15.606 15.606 0 .404.015.804.045 1.2h31.121Zm93.634 0a15.9 15.9 0 0 0 .045-1.2c0-8.619-6.987-15.606-15.605-15.606-8.619 0-15.606 6.987-15.606 15.606 0 .404.015.804.046 1.2h31.12Z" clip-rule="evenodd"/>
  <path fill="#EE2914" fill-rule="evenodd" d="M281.512 17.468c.03-.396.046-.796.046-1.2 0-8.619-6.987-15.606-15.606-15.606s-15.606 6.987-15.606 15.606c0 .404.016.804.046 1.2h31.12Zm93.634 0c.03-.396.046-.796.046-1.2 0-8.619-6.987-15.606-15.606-15.606S343.98 7.65 343.98 16.268c0 .404.016.804.046 1.2h31.12Zm31.211 0c.031-.396.046-.796.046-1.2 0-8.619-6.987-15.606-15.606-15.606-8.618 0-15.605 6.987-15.605 15.606 0 .404.015.804.045 1.2h31.12Zm93.634 0c.03-.396.046-.796.046-1.2 0-8.619-6.987-15.606-15.606-15.606s-15.606 6.987-15.606 15.606c0 .404.016.804.046 1.2h31.12Zm-62.422 0a15.9 15.9 0 0 0 .045-1.2c0-8.619-6.987-15.606-15.606-15.606-8.618 0-15.605 6.987-15.605 15.606 0 .404.015.804.045 1.2h31.121Z" clip-rule="evenodd"/>
  <path fill="#EE2914" fill-rule="evenodd" d="M531.203 17.468a15.9 15.9 0 0 0 .045-1.2c0-8.619-6.987-15.606-15.605-15.606-8.619 0-15.606 6.987-15.606 15.606 0 .404.015.804.045 1.2h31.121Zm-62.423 0c.03-.396.046-.796.046-1.2 0-8.619-6.987-15.606-15.606-15.606s-15.606 6.987-15.606 15.606c0 .404.016.804.046 1.2h31.12Z" clip-rule="evenodd"/>
  <path fill="#EE2914" fill-rule="evenodd" d="M562.414 17.468a15.9 15.9 0 0 0 .045-1.2c0-8.619-6.987-15.606-15.605-15.606-8.619 0-15.606 6.987-15.606 15.606 0 .404.015.804.046 1.2h31.12Z" clip-rule="evenodd"/>
  <path fill="#EE2914" fill-rule="evenodd" d="M593.625 17.468c.03-.396.046-.796.046-1.2 0-8.619-6.987-15.606-15.606-15.606s-15.606 6.987-15.606 15.606c0 .404.016.804.046 1.2h31.12Zm93.635 0a15.9 15.9 0 0 0 .045-1.2c0-8.619-6.987-15.606-15.606-15.606-8.618 0-15.605 6.987-15.605 15.606 0 .404.015.804.045 1.2h31.121Z" clip-rule="evenodd"/>
  <path fill="#EE2914" fill-rule="evenodd" d="M624.837 17.468a15.9 15.9 0 0 0 .045-1.2c0-8.619-6.987-15.606-15.605-15.606-8.619 0-15.606 6.987-15.606 15.606 0 .404.015.804.045 1.2h31.121Zm93.634 0c.03-.396.046-.796.046-1.2 0-8.619-6.987-15.606-15.606-15.606s-15.606 6.987-15.606 15.606c0 .404.016.804.046 1.2h31.12Z" clip-rule="evenodd"/>
  <path fill="#EE2914" fill-rule="evenodd" d="M656.048 17.468c.03-.396.046-.796.046-1.2 0-8.619-6.987-15.606-15.606-15.606s-15.606 6.987-15.606 15.606c0 .404.016.804.046 1.2h31.12Zm93.634 0a15.9 15.9 0 0 0 .045-1.2c0-8.619-6.986-15.606-15.605-15.606s-15.606 6.987-15.606 15.606c0 .404.015.804.046 1.2h31.12Zm31.211 0c.031-.396.046-.796.046-1.2 0-8.619-6.987-15.606-15.606-15.606s-15.605 6.987-15.605 15.606c0 .404.015.804.045 1.2h31.12Z" clip-rule="evenodd"/>
  <path fill="#EE2914" fill-rule="evenodd" d="M812.105 17.468a15.9 15.9 0 0 0 .045-1.2c0-8.619-6.987-15.606-15.605-15.606-8.619 0-15.606 6.987-15.606 15.606 0 .404.015.804.045 1.2h31.121Z" clip-rule="evenodd"/>
</svg>
