<svg xmlns="http://www.w3.org/2000/svg" width="1288" height="916" fill="none" viewBox="0 0 1288 916">
  <path fill="#F0EFE9" stroke="#000" stroke-width="45" d="M171.815 23c11.6 100-39.833 130.333-67 133v666.5c104-28.4 154.333 35.167 166.5 70.5h738.995c36-83.6 135.67-81.833 181-70.5V156c-61.6 0-77-88.667-77-133H171.815Z"/>
  <path fill="#F0EFE9" stroke="#EE2914" stroke-width="30" d="M171.815 23c11.6 100-39.833 130.333-67 133v666.5c104-28.4 154.333 35.167 166.5 70.5h738.995c36-83.6 135.67-81.833 181-70.5V156c-61.6 0-77-88.667-77-133H171.815Z"/>
  <circle cx="1191.31" cy="801.5" r="8.5" fill="#FFB932"/>
  <circle cx="1165.31" cy="818.5" r="8.5" fill="#FFB932"/>
  <circle cx="1123.31" cy="818.5" r="8.5" fill="#FFB932"/>
  <circle cx="1081.31" cy="826.5" r="8.5" fill="#FFB932"/>
  <circle cx="1047.31" cy="844.5" r="8.5" fill="#FFB932"/>
  <circle cx="1019.31" cy="877.5" r="8.5" fill="#FFB932"/>
  <circle cx="981.315" cy="893.5" r="8.5" fill="#FFB932"/>
  <circle cx="854.315" cy="893.5" r="8.5" fill="#FFB932"/>
  <circle cx="728.315" cy="893.5" r="8.5" fill="#FFB932"/>
  <circle cx="604.315" cy="893.5" r="8.5" fill="#FFB932"/>
  <circle cx="396.315" cy="893.5" r="8.5" fill="#FFB932"/>
  <circle cx="939.315" cy="893.5" r="8.5" fill="#FFB932"/>
  <circle cx="812.315" cy="893.5" r="8.5" fill="#FFB932"/>
  <circle cx="686.315" cy="893.5" r="8.5" fill="#FFB932"/>
  <circle cx="478.315" cy="893.5" r="8.5" fill="#FFB932"/>
  <circle cx="562.315" cy="893.5" r="8.5" fill="#FFB932"/>
  <circle cx="354.315" cy="893.5" r="8.5" fill="#FFB932"/>
  <circle cx="897.315" cy="893.5" r="8.5" fill="#FFB932"/>
  <circle cx="770.315" cy="893.5" r="8.5" fill="#FFB932"/>
  <circle cx="644.315" cy="893.5" r="8.5" fill="#FFB932"/>
  <circle cx="436.315" cy="893.5" r="8.5" fill="#FFB932"/>
  <circle cx="520.315" cy="893.5" r="8.5" fill="#FFB932"/>
  <circle cx="1191.39" cy="414.503" r="8.5" fill="#FFB932" transform="rotate(89.981 1191.39 414.503)"/>
  <circle cx="1191.35" cy="290.503" r="8.5" fill="#FFB932" transform="rotate(89.981 1191.35 290.503)"/>
  <circle cx="1191.37" cy="372.503" r="8.5" fill="#FFB932" transform="rotate(89.981 1191.37 372.503)"/>
  <circle cx="1191.33" cy="248.503" r="8.5" fill="#FFB932" transform="rotate(89.981 1191.33 248.503)"/>
  <circle cx="1191.36" cy="330.503" r="8.5" fill="#FFB932" transform="rotate(89.981 1191.36 330.503)"/>
  <circle cx="1191.32" cy="206.503" r="8.5" fill="#FFB932" transform="rotate(89.981 1191.32 206.503)"/>
  <circle cx="1191.39" cy="666.503" r="8.5" fill="#FFB932" transform="rotate(89.981 1191.39 666.503)"/>
  <circle cx="1191.32" cy="709.503" r="8.5" fill="#FFB932" transform="rotate(89.981 1191.32 709.503)"/>
  <circle cx="1191.32" cy="752.503" r="8.5" fill="#FFB932" transform="rotate(89.981 1191.32 752.503)"/>
  <circle cx="1191.35" cy="542.503" r="8.5" fill="#FFB932" transform="rotate(89.981 1191.35 542.503)"/>
  <circle cx="1191.37" cy="624.503" r="8.5" fill="#FFB932" transform="rotate(89.981 1191.37 624.503)"/>
  <circle cx="1191.33" cy="500.503" r="8.5" fill="#FFB932" transform="rotate(89.981 1191.33 500.503)"/>
  <circle cx="1191.36" cy="582.503" r="8.5" fill="#FFB932" transform="rotate(89.981 1191.36 582.503)"/>
  <circle cx="1191.32" cy="458.503" r="8.5" fill="#FFB932" transform="rotate(89.981 1191.32 458.503)"/>
  <circle cx="104.484" cy="410.503" r="8.5" fill="#FFB932" transform="rotate(89.981 104.484 410.503)"/>
  <circle cx="104.415" cy="453.503" r="8.5" fill="#FFB932" transform="rotate(89.981 104.415 453.503)"/>
  <circle cx="104.415" cy="496.503" r="8.5" fill="#FFB932" transform="rotate(89.981 104.415 496.503)"/>
  <circle cx="104.443" cy="286.503" r="8.5" fill="#FFB932" transform="rotate(89.981 104.443 286.503)"/>
  <circle cx="104.47" cy="368.503" r="8.5" fill="#FFB932" transform="rotate(89.981 104.47 368.503)"/>
  <circle cx="104.429" cy="244.503" r="8.5" fill="#FFB932" transform="rotate(89.981 104.429 244.503)"/>
  <circle cx="104.456" cy="326.503" r="8.5" fill="#FFB932" transform="rotate(89.981 104.456 326.503)"/>
  <circle cx="104.415" cy="202.503" r="8.5" fill="#FFB932" transform="rotate(89.981 104.415 202.503)"/>
  <circle cx="104.484" cy="704.503" r="8.5" fill="#FFB932" transform="rotate(89.981 104.484 704.503)"/>
  <circle cx="104.415" cy="747.503" r="8.5" fill="#FFB932" transform="rotate(89.981 104.415 747.503)"/>
  <circle cx="104.415" cy="790.503" r="8.5" fill="#FFB932" transform="rotate(89.981 104.415 790.503)"/>
  <circle cx="104.443" cy="580.503" r="8.5" fill="#FFB932" transform="rotate(89.981 104.443 580.503)"/>
  <circle cx="104.47" cy="662.503" r="8.5" fill="#FFB932" transform="rotate(89.981 104.47 662.503)"/>
  <circle cx="104.429" cy="538.503" r="8.5" fill="#FFB932" transform="rotate(89.981 104.429 538.503)"/>
  <circle cx="104.456" cy="620.503" r="8.5" fill="#FFB932" transform="rotate(89.981 104.456 620.503)"/>
  <circle cx="104.415" cy="496.503" r="8.5" fill="#FFB932" transform="rotate(89.981 104.415 496.503)"/>
  <circle cx="312.315" cy="893.5" r="8.5" fill="#FFB932"/>
  <circle cx="618.315" cy="23.5" r="8.5" fill="#FFB932"/>
  <circle cx="494.315" cy="23.5" r="8.5" fill="#FFB932"/>
  <circle cx="286.315" cy="23.5" r="8.5" fill="#FFB932"/>
  <circle cx="576.315" cy="23.5" r="8.5" fill="#FFB932"/>
  <circle cx="368.315" cy="23.5" r="8.5" fill="#FFB932"/>
  <circle cx="452.315" cy="23.5" r="8.5" fill="#FFB932"/>
  <circle cx="244.315" cy="23.5" r="8.5" fill="#FFB932"/>
  <circle cx="534.315" cy="23.5" r="8.5" fill="#FFB932"/>
  <circle cx="326.315" cy="23.5" r="8.5" fill="#FFB932"/>
  <circle cx="410.315" cy="23.5" r="8.5" fill="#FFB932"/>
  <circle cx="202.315" cy="23.5" r="8.5" fill="#FFB932"/>
  <circle cx="173.315" cy="43.5" r="8.5" fill="#FFB932"/>
  <circle cx="170.315" cy="82.5" r="8.5" fill="#FFB932"/>
  <circle cx="1075.31" cy="23.5" r="8.5" fill="#FFB932"/>
  <circle cx="1115.31" cy="23.5" r="8.5" fill="#FFB932"/>
  <circle cx="1118.31" cy="59.5" r="8.5" fill="#FFB932"/>
  <circle cx="1127.31" cy="91.5" r="8.5" fill="#FFB932"/>
  <circle cx="951.315" cy="23.5" r="8.5" fill="#FFB932"/>
  <circle cx="743.315" cy="23.5" r="8.5" fill="#FFB932"/>
  <circle cx="1033.31" cy="23.5" r="8.5" fill="#FFB932"/>
  <circle cx="825.315" cy="23.5" r="8.5" fill="#FFB932"/>
  <circle cx="909.315" cy="23.5" r="8.5" fill="#FFB932"/>
  <circle cx="701.315" cy="23.5" r="8.5" fill="#FFB932"/>
  <circle cx="991.315" cy="23.5" r="8.5" fill="#FFB932"/>
  <circle cx="783.315" cy="23.5" r="8.5" fill="#FFB932"/>
  <circle cx="867.315" cy="23.5" r="8.5" fill="#FFB932"/>
  <circle cx="659.315" cy="23.5" r="8.5" fill="#FFB932"/>
  <circle cx="270.315" cy="890.5" r="8.5" fill="#FFB932"/>
  <circle cx="249.315" cy="857.5" r="8.5" fill="#FFB932"/>
  <circle cx="219.315" cy="831.5" r="8.5" fill="#FFB932"/>
  <circle cx="178.315" cy="817.5" r="8.5" fill="#FFB932"/>
  <circle cx="139.315" cy="817.5" r="8.5" fill="#FFB932"/>
  <circle cx="104.315" cy="822.5" r="8.5" fill="#FFB932"/>
  <path fill="#9DCCC9" d="m415.27 836.269 36.851-78.952H378.42l36.85 78.952Zm154.199 0 37.189-78.952h-74.377l37.188 78.952Z"/>
  <path fill="#EE2914" d="m491.003 836.269 36.851-78.952h-73.701l36.85 78.952Zm156.152 0 36.85-78.952h-73.701l36.851 78.952Zm152.247 0 36.851-78.952h-73.701l36.85 78.952Z"/>
  <path fill="#9DCCC9" d="m723.669 836.269 36.851-78.952h-73.701l36.85 78.952Zm153.809 0 36.85-78.952h-73.701l36.851 78.952Z"/>
  <path fill="#FFB932" d="m277.075 666.195 59.446-125.531H217.629l59.446 125.531Zm247.513 0 59.447-125.531H465.142l59.446 125.531Z"/>
  <path fill="#EE2914" d="m398.827 666.195 59.013-125.531H339.815l59.012 125.531Zm250.52 0 59.012-125.531H590.335l59.012 125.531Zm244.507 0 59.012-125.531H834.842l59.012 125.531Z"/>
  <path fill="#FFB932" d="m772.102 666.195 59.446-125.531H712.656l59.446 125.531Zm239.858.18 59.01-125.531H952.944l59.016 125.531Z"/>
  <path fill="#EE2914" fill-rule="evenodd" d="M193.581 284.32a53.618 53.618 0 0 0-.18 4.395c0 26.7 19.741 48.344 44.092 48.344s44.091-21.644 44.091-48.344c0-1.482-.06-2.948-.179-4.395h-87.824Z" clip-rule="evenodd"/>
  <path fill="#EE2914" fill-rule="evenodd" d="M281.764 284.32a53.618 53.618 0 0 0-.18 4.395c0 26.7 19.741 48.344 44.092 48.344s44.091-21.644 44.091-48.344c0-1.482-.061-2.948-.18-4.395h-87.823Z" clip-rule="evenodd"/>
  <path fill="#EE2914" fill-rule="evenodd" d="M369.947 284.32a53.618 53.618 0 0 0-.18 4.395c0 26.7 19.741 48.344 44.092 48.344s44.091-21.644 44.091-48.344c0-1.482-.061-2.948-.18-4.395h-87.823Z" clip-rule="evenodd"/>
  <path fill="#EE2914" fill-rule="evenodd" d="M458.13 283.221a53.618 53.618 0 0 0-.18 4.395c0 26.699 19.74 48.344 44.091 48.344 24.351 0 44.092-21.645 44.092-48.344 0-1.482-.061-2.948-.18-4.395H458.13Z" clip-rule="evenodd"/>
  <path fill="#EE2914" fill-rule="evenodd" d="M546.313 284.32a53.618 53.618 0 0 0-.18 4.395c0 26.7 19.74 48.344 44.091 48.344 24.351 0 44.092-21.644 44.092-48.344 0-1.482-.061-2.948-.18-4.395h-87.823Z" clip-rule="evenodd"/>
  <path fill="#EE2914" fill-rule="evenodd" d="M634.496 283.221a53.618 53.618 0 0 0-.18 4.395c0 26.699 19.74 48.344 44.091 48.344 24.351 0 44.092-21.645 44.092-48.344 0-1.482-.061-2.948-.18-4.395h-87.823Z" clip-rule="evenodd"/>
  <path fill="#EE2914" fill-rule="evenodd" d="M722.679 284.32a53.618 53.618 0 0 0-.18 4.395c0 26.7 19.74 48.344 44.091 48.344 24.352 0 44.092-21.644 44.092-48.344 0-1.482-.061-2.948-.18-4.395h-87.823Z" clip-rule="evenodd"/>
  <path fill="#EE2914" fill-rule="evenodd" d="M810.861 284.32a53.62 53.62 0 0 0-.179 4.395c0 26.7 19.74 48.344 44.091 48.344 24.351 0 44.092-21.644 44.092-48.344 0-1.482-.061-2.948-.18-4.395h-87.824Zm88.183 0a54.069 54.069 0 0 0-.179 4.395c0 26.7 19.74 48.344 44.091 48.344 24.351 0 44.092-21.644 44.092-48.344 0-1.482-.061-2.948-.18-4.395h-87.824Z" clip-rule="evenodd"/>
  <path fill="#EE2914" fill-rule="evenodd" d="M986.995 284a53.637 53.637 0 0 0-.18 4.395c0 26.7 19.745 48.344 44.095 48.344 24.35 0 44.09-21.644 44.09-48.344 0-1.482-.06-2.947-.18-4.395h-87.825Z" clip-rule="evenodd"/>
  <path fill="#EE2914" d="M195.815 284.766 630.82 39l211.759 118.281 232.231 128.607L484.487 287l-133.848-2.234H195.815Z"/>
  <path fill="#F0EFE9" d="m629.824 39 26.991 248h-55l28.009-248Zm-.009 0-78.819 248h-56.227L629.815 39Zm0 0-188.5 247.5-62-1L629.815 39Zm0 0L318.556 284.781h-61.741L629.815 39Z"/>
  <path fill="#F0EFE9" d="m629.815 39 145 248h-60.5l-84.5-248Zm0 0 266 248h-68.759L629.815 39Zm0 0 401.995 248h-68.08L629.815 39Z"/>
  <path stroke="#EE2914" stroke-width="3" d="M1072.81 288.779V141M195.815 284.779V137"/>
  <path fill="#FFB932" d="M1068.22 110.34c30.73 10.621 103.41 27.029 136.28 7.691 32.87-19.337 68.47-4.761 82.17 4.945-6.35-2.381-21.75-5.714-32.57 0-10.82 5.713-16.53 13.734-18.04 17.03 9.19-1.648 30.27-2.307 41.09 8.241 5.06 4.931 7.76 7.492 9.07 8.673l.45.116c.71.78 1.03 1.228-.45-.116-9.96-2.493-33.18-3.844-50.16 10.005-17.23 14.064-55.28 15.748-72.15 14.833-28.55-3.48-87.68-12.746-95.69-21.975V110.34Zm-865.8.005c-28.397 10.646-95.563 27.093-125.935 7.709C46.112 98.67 13.209 113.282.553 123.01c5.865-2.386 20.095-5.727 30.095 0 10.001 5.727 15.28 13.767 16.668 17.071-8.488-1.652-27.965-2.313-37.966 8.26-4.675 4.943-7.171 7.511-8.378 8.694l-.419.117c-.657.782-.956 1.231.419-.117 9.199-2.498 30.66-3.853 46.344 10.029 15.927 14.098 51.084 15.786 66.672 14.868 26.39-3.487 81.024-12.775 88.432-22.027v-49.56Z"/>
</svg>
