<svg xmlns="http://www.w3.org/2000/svg" width="725" height="987" fill="none" viewBox="0 0 725 987">
  <path fill="#F0EFE9" d="m130.837 287.039 21.98-78.075.741-.416 17.763 89.888-11.567-3.257-4.07 14.459 98.606 27.759 4.07-14.458-8.675-2.442-36.501-144.161 54.746-34.833 19.953 5.617 4.07-14.459-71.425-20.107-4.07 14.459 30.074 8.466-88.831 56.135 21.165-75.184 20.242 5.698 4.07-14.458-104.1-29.306-4.07 14.458 17.35 4.885-48.03 170.609-17.35-4.885-4.07 14.459 95.426 26.864 4.07-14.459-11.567-3.256Z"/>
  <path fill="#EE2914" fill-rule="evenodd" d="m417.384 189.622-75.871 71.534 54.952 31.02 20.919-102.554Zm-120.04 147.161-10.551 18.691L221 318.335l10.551-18.691 20.934 11.817L468.522 113l54.205 30.597-38.336 200.506a37.455 37.455 0 0 0-2.232-5.476c-4.984-9.604-14.296-18.239-28.219-25.823-14.838-8.082-28.426-11.92-40.563-11.88-11.546-.055-19.624 3.864-24.536 11.595l-63.487-35.837-50.066 47.651 22.056 12.45Zm90.587-3.556-2.476 11.858c9.156.29 20.225 3.443 33.048 9.229l13.689 6.269 7.484-13.74c3.991-7.328 5.336-13.722 4.217-19.082-1.301-5.46-5.067-9.886-11.479-13.379-1.831-.998-3.763-1.812-5.612-2.344-1.848-.532-3.696-1.063-5.644-1.412 2.949 3.744 4.682 7.539 5.018 11.285.335 3.746-.362 7.642-2.558 11.672-2.893 5.313-6.837 8.628-11.548 9.863-4.711 1.235-9.906.306-15.585-2.788-3.779-2.058-6.661-4.526-8.554-7.431Zm-33.236 35.93-5.016-2.832-10.551 18.692 136.82 77.232 10.551-18.692-18.644-10.523c-2.423 2.037-4.911 3.514-7.465 4.433-7.091 2.552-15.349 1.141-25.059-4.147-8.06-4.391-13.474-9.715-16.042-16.34-2.568-6.625-2.489-14.183.603-22.476-6.19 6.13-13.23 9.897-21.288 10.734-8.157 1.02-16.216-.756-24.46-5.247-8.794-4.789-14.841-10.696-17.758-17.987-1.811-4.314-2.35-8.583-1.691-12.847Zm116.695 42.945 7.471-39.073-23.711 43.53c-1.397 2.565-2.112 4.314-1.978 5.812.134 1.498.934 2.647 2.583 3.545 1.832.997 3.913.23 6.608-2.102 2.696-2.332 5.641-6.43 8.634-11.926l.393.214Zm-61.187-44.73c-2.946 1.483-5.575 4.565-7.97 8.961-1.896 3.481-2.743 6.345-2.442 8.41.301 2.064 1.55 3.695 3.932 4.992 2.748 1.497 6.127.962 9.955-1.704 3.827-2.666 7.438-7.114 10.631-12.976l2.894-5.312-7.094-2.677c-3.597-1.246-6.96-1.178-9.906.306Z" clip-rule="evenodd"/>
  <path fill="#F0EFE9" d="M214.639 499v-41.1h-10.816v3.461c0 6.273-.432 10.816-.865 13.628-.649 2.812-1.73 4.975-3.028 6.706-1.731 2.379-4.11 4.11-7.139 4.975-3.244 1.082-7.354 1.514-12.329 1.514h-15.359l48.671-90.852v-8.652h-91.068v38.936h10.815v-3.461c0-6.056.217-10.599.866-13.195s1.73-4.542 3.244-6.273c1.515-1.73 3.894-3.028 6.922-3.893 3.029-.866 7.139-1.298 12.33-1.298h11.032l-48.67 90.851V499h95.394Zm422.054-135.068-12.541-3.341 25.897-97.195-7.859-4.109c-4.877-.18-11.789-1.127-20.679-3.048-8.89-1.921-19.397-4.496-31.311-7.671l-2.785 10.451 12.541 3.342-22.834 85.699-12.541-3.342-2.785 10.451 72.113 19.214 2.784-10.451Zm3.019-161.718c-8.361-2.228-15.398-1.864-20.846.937-5.712 2.956-9.25 7.833-11.144 14.94-1.893 7.107-1.251 13.098 2.289 18.295 3.332 5.141 9.31 8.748 17.671 10.976 8.361 2.228 15.133 2.017 20.845-.938 5.657-2.746 9.404-7.568 11.242-14.466 1.838-6.897.986-12.944-2.498-18.35-3.485-5.406-9.199-9.167-17.559-11.394Z"/>
  <path fill="#FFB932" d="M573.976 581.184v-37.855c0-11.897 1.298-22.496 4.11-31.581 2.595-9.086 6.489-15.575 11.464-19.469.649-.432 1.515-1.081 2.38-1.514.865-.433 1.73-.865 3.028-1.298-2.812 2.38-4.975 5.192-6.273 8.22-1.298 3.245-1.947 6.706-1.947 10.6 0 7.571 2.163 13.411 6.49 17.737 4.326 4.327 10.383 6.49 17.954 6.49 6.922 0 12.546-2.38 16.872-7.571 4.11-4.976 6.273-11.898 6.273-20.55 0-8.22-2.812-14.926-8.22-19.685-5.624-4.759-12.978-7.354-22.064-7.354-10.383 0-19.035 3.461-25.741 10.166-6.706 6.706-11.032 15.791-12.763 27.472v-34.394l-8.652-1.946c-4.759 1.081-11.032 1.946-18.603 2.379-7.571.433-16.224.649-25.958.649v10.816h12.979v88.688h-12.979V592h85.444v-10.816h-23.794Z"/>
  <path fill="#EE2914" d="M333.572 817.394 229.628 661.357l146.675 110.21 21.998-14.654-42.651-177.812 103.162 154.864-17.598 11.723 9.77 14.665 102.655-68.384-9.769-14.665-17.598 11.723-115.276-173.049 17.598-11.723-9.769-14.665-90.044 59.983 28.793 116.326-94.786-72.365-89.457 59.592 9.769 14.665 17.598-11.723 115.276 173.049-17.598 11.723 9.769 14.665 65.993-43.962-9.769-14.665-30.797 20.516Z"/>
</svg>
