<svg xmlns="http://www.w3.org/2000/svg" width="370" height="305" fill="none" viewBox="0 0 370 305">
  <path fill="#EE2914" stroke="#000" stroke-width="5" d="M91.5 190.997 47 129.498c103.6-154 228.667-64.167 273 0l-48.5 61.499c-23.537-43.004-59.957-62.377-90-61.499-37.862 1.106-75.039 38.918-90 61.499Z"/>
  <path fill="#F0EFE9" d="M90.531 130.692c-.073-.06-.153-.185-.3-.303-.146-.119-.263-.274-.336-.333-2.099-2.121-3.432-4.29-4.03-6.47-.599-2.179-.317-3.949.837-5.377 1.28-1.507 2.798-2.036 4.648-1.629 1.85.407 4.005 1.787 6.499 4.167 2.457 2.352 4.07 4.625 4.896 6.747.797 2.158.648 3.914-.477 5.305-1.451 1.794-3.153 2.475-5.062 2.142-1.91-.334-4.137-1.773-6.675-4.249Zm19.583 12.692-.98-1.034-3.316 4.099-9.65-9.926c1.307.33 2.601.227 3.883-.31s2.463-1.398 3.529-2.716c1.754-2.093 2.386-4.67 1.799-7.687-.586-3.018-2.152-5.798-4.799-8.363-2.678-2.529-5.398-3.882-8.029-4.073-2.63-.191-4.864.849-6.7 3.118-1.213 1.5-1.803 3.203-1.74 5.07.063 1.868.686 3.643 1.934 5.319l-4.328-4.53-.662.07c.028.265-.313.836-.92 1.737-.609.901-1.674 2.219-3.096 3.975l.98 1.035 2.546-3.147 22.737 23.539-2.605 3.221.979 1.034 8.438-10.431Zm7.793-24.034c1.845-1.462 2.971-3.074 3.376-4.836.406-1.763.077-3.845-1.006-6.35l-1.238.56c.813 2.239 1.142 4.02.857 5.327-.257 1.344-1.027 2.495-2.355 3.547-1.513 1.199-3.051 1.456-4.709.727-1.629-.691-3.312-2.361-5.078-5.045 3.395-2.69 5.643-5.311 6.743-7.864 1.1-2.553.898-4.855-.511-6.862-1.015-1.357-2.343-2.047-4.011-2.107-1.677.007-3.356.616-5.016 1.931-2.325 1.842-3.579 4.277-3.763 7.305-.22 3.057.691 6.179 2.734 9.365 1.926 3.038 4.152 4.938 6.736 5.774 2.584.836 4.99.311 7.241-1.472Zm-12.33-19.66c.849-.672 1.747-.903 2.695-.693.91.24 1.774.876 2.527 1.902 1.204 1.748 1.497 3.558.849 5.393-.62 1.872-2.188 3.834-4.697 5.822-1.758-2.751-2.776-5.248-3.022-7.455-.247-2.206.283-3.887 1.648-4.969Zm26.241 9.701-3.876-10.295c-1.234-3.286-1.829-6.16-1.743-8.646.085-2.486.795-4.077 2.131-4.773a3.1 3.1 0 0 1 .942-.331c.294-.047.61-.053.864.027-.624.432-1.015 1.007-1.15 1.767s.005 1.537.396 2.288c.348.669.84 1.103 1.474 1.303.635.2 1.265.084 2.017-.307.835-.436 1.372-1.034 1.591-1.838.218-.803.14-1.665-.295-2.5-.608-1.17-1.463-1.892-2.606-2.252-1.121-.319-2.318-.172-3.571.48-1.336.696-2.222 1.848-2.701 3.477-.52 1.65-.508 3.609-.051 5.812l-2.291-6.131-.635-.2c-.08.253-.621.641-1.538 1.225-.917.584-2.42 1.367-4.424 2.41l.486 1.34 3.59-1.87 7.841 20.862 3.549-1.848Zm11.506 7.256c2.232-.747 3.853-2.431 4.773-5.022.92-2.591.976-5.837.212-9.751l-4.356-21.625 5.357-1.792-.314-1.384-5.357 1.792-.644-3.26c-.524-2.604-.526-4.688.008-6.207.549-1.474 1.679-2.547 3.376-3.115.446-.15.967-.224 1.458-.24.491-.015.864.059 1.162.207-.968.374-1.682.91-2.038 1.625-.401.73-.43 1.534-.131 2.427.239.714.611 1.235 1.207 1.532.551.312 1.191.296 1.95.042.938-.313 1.592-.88 1.963-1.699.327-.804.356-1.757-.003-2.828-.403-1.206-1.208-1.979-2.34-2.394-1.176-.4-2.456-.37-3.84.093-2.679.897-4.523 2.655-5.547 5.232-1.009 2.62-1.154 5.896-.331 9.84l-4.063 1.359.315 1.384 4.017-1.344 5.045 24.869c.479 2.62.511 4.644.111 6.118-.43 1.534-1.307 2.473-2.602 2.906-.491.164-.952.269-1.444.285-.491.015-.908-.044-1.176-.252.982-.329 1.652-.851 2.053-1.58.356-.715.43-1.534.116-2.472-.239-.714-.641-1.175-1.193-1.487-.595-.297-1.25-.326-1.965-.087-.982.329-1.621.94-1.948 1.744-.371.819-.355 1.757-.012 2.784.419 1.25 1.179 2.038 2.355 2.438 1.132.416 2.397.34 3.826-.138Zm32.033-31.793c-.117-3.502-1.226-6.292-3.388-8.458-2.202-2.112-4.751-2.986-7.641-2.576-2.983.424-5.394 1.86-7.233 4.309-1.839 2.448-2.694 5.47-2.57 9.018.117 3.502 1.24 6.386 3.448 8.544 2.215 2.206 4.764 3.08 7.7 2.663 2.937-.417 5.301-1.847 7.134-4.342 1.833-2.495 2.681-5.563 2.55-9.158Zm-16.684 1.704c-.124-3.881.238-6.69 1.145-8.34.86-1.644 2.379-2.668 4.569-2.98 2.144-.304 3.808.363 4.945 2.008 1.09 1.652 1.714 4.369 1.877 8.197.09 3.981-.271 6.79-1.125 8.48-.893 1.744-2.372 2.715-4.516 3.02-2.237.317-3.901-.35-4.998-2.048-1.137-1.646-1.774-4.456-1.897-8.337Zm25.458 10.192 1.934-10.83c.62-3.454 1.579-6.228 2.923-8.321s2.769-3.097 4.273-3.011c.376.021.702.087.979.197.276.11.55.267.728.465-.758.052-1.387.346-1.892.93-.504.585-.782 1.323-.83 2.17-.043.751.158 1.376.601 1.872.443.497 1.044.72 1.89.768.94.053 1.708-.187 2.306-.766.599-.579.973-1.36 1.026-2.3.075-1.315-.289-2.373-1.087-3.267-.801-.847-1.905-1.334-3.315-1.414-1.504-.085-2.855.452-4.099 1.607-1.291 1.153-2.283 2.841-3.016 4.969l1.166-6.441-.443-.497c-.199.178-.862.234-1.948.267-1.087.033-2.779-.063-5.035-.19l-.267 1.398 4.042.23-3.931 21.937 3.995.227Zm39.514 9.257c1.52.502 2.889.409 4.018-.309 1.13-.718 2.33-2.404 3.722-5.117l-1.207-.398c-.918 1.878-1.747 3.19-2.549 3.967-.802.776-1.575 1.017-2.38.751-.625-.207-.954-.563-.971-1.114-.016-.55.205-1.37.723-2.488l5.222-11.165c1.021-2.191 1.328-4.023.952-5.436-.421-1.428-1.466-2.467-3.254-3.057-1.431-.472-2.77-.469-3.99-.078-1.279.42-2.497 1.258-3.61 2.526.293-1.49.201-2.71-.294-3.765-.554-1.026-1.449-1.767-2.79-2.21-1.699-.56-3.306-.496-4.823.193-1.516.689-2.941 2.003-4.231 3.957l2.738-5.74-.3-.594c-.238.12-.893.003-1.951-.247-1.057-.25-2.667-.782-4.812-1.49l-.622 1.282 3.845 1.27-9.484 20.168 3.8 1.254 4.882-10.434c1.494-3.175 2.946-5.472 4.372-6.786 1.425-1.315 2.853-1.736 4.373-1.234.983.325 1.521.949 1.628 1.827.092.922-.262 2.144-1.002 3.784l-7.28 15.145 3.845 1.269 6.051-12.626c1.274-2.356 2.519-4.027 3.782-4.998 1.218-.986 2.452-1.272 3.704-.86.984.325 1.507.994 1.643 1.931.092.923-.217 2.16-.927 3.71l-5.001 10.494c-.814 1.714-1.018 3.085-.643 4.2.331 1.101 1.301 1.917 2.821 2.418Zm30.433-18.799a3 3 0 0 0 .407-2.183 2.944 2.944 0 0 0-1.373-1.898c-.801-.495-1.551-.625-2.288-.416-.777.184-1.349.66-1.794 1.382-.445.721-.591 1.406-.407 2.183.144.752.597 1.364 1.398 1.858.761.47 1.51.6 2.288.416a3.004 3.004 0 0 0 1.769-1.342Zm-19.682 25.525c1.362.841 2.716 1.067 3.981.631 1.265-.436 2.824-1.797 4.807-4.114l-1.082-.667c-1.328 1.614-2.44 2.698-3.399 3.267-.96.57-1.768.624-2.489.179-.561-.346-.798-.769-.686-1.308.111-.54.516-1.286 1.279-2.253l12.001-15.053-.153-.647c-.259.061-.95-.255-2.041-.817-1.09-.563-2.653-1.527-4.696-2.788l-.902 1.103 3.445 2.126-10.648 13.398c-1.189 1.479-1.706 2.764-1.599 3.936.066 1.148.82 2.166 2.182 3.007Zm20.092 16.285c1.176 1.085 2.461 1.567 3.786 1.38 1.326-.186 3.148-1.258 5.569-3.188l-.934-.862c-1.612 1.331-2.942 2.217-3.993 2.592-1.118.378-1.921.277-2.51-.266-.484-.447-.636-.907-.423-1.415.213-.508.753-1.163 1.687-1.967l9.374-8.004c1.835-1.573 2.873-3.113 3.08-4.588.208-1.474-.383-2.916-1.836-4.257-1.453-1.341-3.145-2.006-5.111-2.027-2.001-.053-4.01.527-6.126 1.778l5.383-4.513-.027-.665c-.266.01-.814-.368-1.673-1.033-.86-.665-2.105-1.814-3.766-3.347l-1.096.91 2.975 2.746-16.977 14.439 2.94 2.714 8.376-7.132c2.543-2.2 4.954-3.563 7.229-4.154 2.208-.588 3.916-.357 5.093.729.864.798 1.2 1.684.971 2.626-.229.942-1.022 1.94-2.309 3.057l-8.927 7.521c-1.45 1.224-2.203 2.386-2.322 3.557-.155 1.139.391 2.283 1.567 3.369Zm20.959-.9c1.838-.894 3.495-1.213 4.918-1.035 1.385.204 2.536.905 3.35 2.117.787 1.172.909 2.452.404 3.811-.505 1.36-1.572 2.473-3.214 3.236-1.903.881-3.561 1.199-4.945.995-1.424-.178-2.536-.905-3.323-2.078-.788-1.172-.975-2.464-.47-3.824.505-1.359 1.598-2.434 3.28-3.222Zm-8.126 22.353c1.642-1.103 2.459-2.672 2.466-4.604-.059-1.946-1.06-4.619-3.03-8.059-1.195-2.033-1.813-3.376-1.907-4.107-.093-.73.179-1.254.765-1.647.704-.473 1.631-.358 2.743.369 1.073.754 2.148 1.847 3.145 3.332 1.469 2.189 3.184 3.646 5.276 4.396 2.065.711 4.089.6 6.083-.399 1.029-.578 1.889-1.325 2.525-2.319.597-.968.959-2.118 1.033-3.359l2.612 4.143 1.173-.787-4.094-6.097c-.198-.547-.408-1.03-.592-1.473a7.28 7.28 0 0 0-.67-1.251c-1.47-2.189-3.25-3.658-5.316-4.37-2.091-.75-4.088-.6-6.043.373-1.356.683-2.371 1.705-2.98 3.078-.609 1.373-.774 2.901-.481 4.519-1.258-1.197-2.435-1.937-3.663-2.247-1.229-.309-2.247-.136-3.185.494-.937.63-1.496 1.402-1.676 2.316-.18.915-.059 2.024.494 3.354-1.534-1.862-3.17-3.031-4.908-3.509-1.738-.477-3.317-.211-4.763.76-1.602 1.076-2.314 2.802-2.176 5.204.139 2.402 1.074 4.892 2.78 7.433 1.836 2.735 4.088 4.569 6.833 5.448 2.745.878 5.25.557 7.556-.991Zm-12.803-14.255c1.329-.892 2.712-1.197 4.175-.875 1.425.348 2.864 1.309 4.253 2.871.079.117.171.339.328.574.158.234.25.456.329.573.722 1.329 1.274 2.32 1.563 2.919.289.6.487 1.148.632 1.617.29.939.267 1.749.034 2.416-.272.692-.805 1.334-1.626 1.885-1.641 1.102-3.39 1.369-5.219.84-1.83-.53-3.414-1.791-4.779-3.823-1.338-1.993-2.01-3.754-1.949-5.268.06-1.515.813-2.758 2.259-3.729Z"/>
  <path fill="#000" d="M125.345 201.76c1.902-17.719-21.467-11.924-33.389-6.812 15.837-27.24 31.594-38.321 37.493-40.457 26.466-1.346-6.482 69.419-4.104 47.269ZM87.5 218.029c8-1.2 3.5 32.468 2 43.968-7-4.5-18-14.5-23-21l21-22.968Z"/>
  <path fill="#EE2914" stroke="#000" stroke-width="5" d="M19 247.498c12-24 27.667-27.667 34-26.001 7 3.5 20.667 20.667 30 35.001-27-11-44.5 25.5-54 46.5l5-27.5c-9.2-1.2-24.5 9.5-31 15 .333-4.334 4-19 16-43Z"/>
  <path fill="#EE2914" stroke="#000" stroke-width="5" d="M68 238.497c-2.8-.4-20.833-31.166-29.5-46.5 14.8-29.6 25.833-32.666 29.5-30.5l23 30.5c32.48-16.4 34.367-.833 33 10.5-25-7.5-52.5 36.5-56 36Z"/>
  <path fill="#000" d="M242.334 199.717c-1.983-16.879 21.604-11.447 33.645-6.62-16.069-25.9-31.999-36.4-37.955-38.413-26.693-1.181 6.788 66.133 4.31 45.033Zm38.222 15.359c-8.071-1.113-3.411 30.956-1.857 41.91 7.043-4.315 18.099-13.888 23.117-20.102l-21.26-21.808Z"/>
  <path fill="#EE2914" stroke="#000" stroke-width="5" d="M349.739 242.897c-12.188-22.826-28-26.261-34.381-24.648-7.046 3.362-20.765 19.775-30.125 33.471 27.187-10.587 44.967 24.131 54.623 44.107l-5.142-26.188c9.273-1.179 24.741 8.959 31.315 14.176-.352-4.128-4.102-18.092-16.29-40.918Z"/>
  <path fill="#EE2914" stroke="#000" stroke-width="5" d="M300.294 234.508c2.822-.392 20.895-29.783 29.579-44.429-15.032-28.152-26.169-31.032-29.858-28.953l-23.083 29.155c-32.813-15.505-34.659-.662-33.239 10.133 25.183-7.243 53.074 34.584 56.601 34.094Z"/>
</svg>
