<svg width="1098" height="1545" viewBox="0 0 1098 1545" fill="none" xmlns="http://www.w3.org/2000/svg">
<path d="M29.4117 0.400879L165.061 201.474L181.867 216.479L76.2286 332.321L0.000976562 253.093V0.400879H29.4117Z" fill="#EE2914"/>
<path d="M82.2309 420.553L1.80176 370.135V541.797L82.2309 581.412V420.553Z" fill="#E73726"/>
<path d="M76.2288 757.876L1.80176 749.473V608.422L76.2288 625.228V757.876Z" fill="#EE2914"/>
<path d="M1.80176 807.094L76.2288 799.891V918.134L1.80176 946.344V807.094Z" fill="#EE2914"/>
<path d="M1.80176 1012.97L76.2288 970.353L83.4314 1125.21L1.80176 1181.63V1012.97Z" fill="#EE2914"/>
<path d="M1.80176 1301.67L83.4314 1215.84H183.668L169.263 1347.89L27.0109 1544.16H1.80176V1301.67Z" fill="#EE2914"/>
<path d="M169.263 1544.16L234.086 1410.31L314.515 1391.71L384.741 1445.13L360.732 1544.16H169.263Z" fill="#EE2914"/>
<path d="M460.968 1544.16L469.371 1445.13H626.028L633.231 1544.16H460.968Z" fill="#EE2914"/>
<path d="M737.069 1544.16L711.859 1445.13L860.113 1401.91L926.137 1544.16H737.069Z" fill="#EE2914"/>
<path d="M926.137 1347.89L1069.59 1544.16H1097.8V1301.67L1013.17 1215.84H982.558L926.137 1347.89Z" fill="#EE2914"/>
<path d="M1097.8 1179.23L1013.17 1125.21V969.153L1097.8 1011.17V1179.23Z" fill="#EE2914"/>
<path d="M1097.8 946.344L1013.17 921.135V790.288L1097.8 804.093V946.344Z" fill="#EE2914"/>
<path d="M1013.17 760.277L1097.8 746.472V604.22L1013.17 629.429V760.277Z" fill="#EE2914"/>
<path d="M1097.8 541.797L1013.17 580.211V429.557L1097.8 373.136V541.797Z" fill="#EE2914"/>
<path d="M1097.8 257.294L1013.17 336.523H982.558L918.935 202.674L1068.39 4.0022H1097.8V257.294Z" fill="#EE2914"/>
<path d="M855.912 152.856L918.935 4.0022H737.069L702.256 152.856H855.912Z" fill="#EE2914"/>
<path d="M618.826 101.237L631.43 4.0022H457.967L468.171 101.237H618.826Z" fill="#EE2914"/>
<path d="M355.33 4.0022L384.741 101.237L231.085 152.856L166.261 4.0022H355.33Z" fill="#EE2914"/>
<path d="M179.466 165.461C173.704 245.65 111.041 261.296 80.4302 259.095L84.6317 1291.47C162.9 1291.47 177.665 1352.69 175.265 1383.3H231.685C236.007 1428.92 284.304 1445.13 307.913 1447.53C443.962 1446.93 729.506 1446.09 783.285 1447.53C837.065 1448.97 858.112 1405.31 861.914 1383.3H915.933C921.696 1313.2 981.557 1292.87 1010.77 1291.47V259.095C926.737 259.095 914.533 196.672 918.935 165.461H863.114C863.114 124.646 822.299 107.64 801.892 104.239H306.112C248.971 104.239 231.885 145.053 230.485 165.461H179.466Z" fill="#F0EFE9" stroke="black" stroke-width="12.0044"/>
</svg>
