<svg width="751" height="467" viewBox="0 0 751 467" fill="none" xmlns="http://www.w3.org/2000/svg">
<path d="M42.178 4C32.3423 39.7191 12.6278 45.6291 4 44.1192V313.953L373.485 404.545L747.5 313.953V44.1192C712.299 44.1192 702.635 17.3731 702.204 4H42.178Z" fill="#EE2914" stroke="black" stroke-width="6.47084"/>
<path d="M61.3387 15C52.068 48.6673 33.486 54.2379 25.3538 52.8147V307.149L373.615 392.537L726.146 307.149V52.8147C692.967 52.8147 683.859 27.6049 683.452 15H61.3387Z" stroke="black" stroke-width="3.88251"/>
<path d="M64.5 339L1 324L16.5 380.5L64.5 339Z" fill="#FFB932"/>
<path d="M137.5 358L74 343L89.5 399.5L137.5 358Z" fill="black"/>
<path d="M217.5 380L154 365L169.5 421.5L217.5 380Z" fill="#FFB932"/>
<path d="M292.5 399L229 384L244.5 440.5L292.5 399Z" fill="black"/>
<path d="M367.5 420L304 405L319.5 461.5L367.5 420Z" fill="#FFB932"/>
<path d="M688.959 342.08L747.74 328.781L731.857 384.844L688.959 342.08Z" fill="#FFB932"/>
<path d="M621.333 359.124L680.114 345.825L664.232 401.887L621.333 359.124Z" fill="black"/>
<path d="M547.189 378.979L605.97 365.68L590.088 421.743L547.189 378.979Z" fill="#FFB932"/>
<path d="M477.726 395.969L536.507 382.67L520.624 438.733L477.726 395.969Z" fill="black"/>
<path d="M408.205 414.959L466.986 401.66L451.103 457.722L408.205 414.959Z" fill="#FFB932"/>
</svg>
