<svg width="754" height="691" viewBox="0 0 754 691" fill="none" xmlns="http://www.w3.org/2000/svg">
<path d="M27 443L353.685 7L726 443" stroke="black" stroke-width="5"/>
<path d="M362.5 340.501C348.5 382.101 306.667 381.168 287.5 375.501C277.5 372.167 252 364.301 230 359.501C208 354.701 186.167 368.167 178 375.501C164 388.072 152.333 402.834 144.5 406.001C87.8256 406.001 64.7639 419.841 57.1301 424.423L57 424.501C48 430.167 27.6 449.901 18 483.501C8.39999 517.101 26.6667 548.167 37 559.501C54.7794 579.001 104.5 587.19 138.5 595.501C146 597.334 164.4 606.001 178 626.001C191.6 646.001 228 644.667 244.5 641.501C253.5 639.773 274.2 626.001 313 626.001C351.8 626.001 356.225 652.206 362.5 663.501C375 686.001 387 673.001 394 660.001C400.442 648.037 418.333 631.001 430.5 626.001C450.1 618.001 497.667 633.001 519 641.501C540.256 649.97 560.686 636.598 569.901 630.566L570 630.501C576.875 626.001 588.2 612.601 599 605.001C609.8 597.401 632.5 592.834 642.5 591.501C673 587.434 705.167 573.834 716 563.501C743.6 544.301 739.833 492.834 734.5 469.501C727.7 436.701 688.667 418.834 670 414.001C642.5 406.88 616 409.77 605 403.001C600.667 400.334 597 396.001 585.5 386.501C574 377.001 564.333 369.667 557 365.501C527.5 354.001 483 375.501 457 379.501C421 385.901 397.667 356.167 390.5 340.501C379.7 320.101 367.212 326.5 362.5 340.501Z" fill="#F0EFE9" stroke="#EE2914" stroke-width="30"/>
<circle cx="61" cy="423" r="9" fill="#FFB932"/>
<circle cx="36" cy="441" r="9" fill="#FFB932"/>
<circle cx="21" cy="476" r="9" fill="#FFB932"/>
<circle cx="15" cy="511" r="9" fill="#FFB932"/>
<circle cx="27" cy="546" r="9" fill="#FFB932"/>
<circle cx="54" cy="570" r="9" fill="#FFB932"/>
<circle cx="83" cy="578" r="9" fill="#FFB932"/>
<circle cx="118" cy="588" r="9" fill="#FFB932"/>
<circle cx="149" cy="600" r="9" fill="#FFB932"/>
<circle cx="179" cy="629" r="9" fill="#FFB932"/>
<circle cx="92" cy="411" r="9" fill="#FFB932"/>
<circle cx="126" cy="405" r="9" fill="#FFB932"/>
<circle cx="161" cy="393" r="9" fill="#FFB932"/>
<circle cx="192" cy="368" r="9" fill="#FFB932"/>
<circle cx="229" cy="359" r="9" fill="#FFB932"/>
<circle cx="260" cy="368" r="9" fill="#FFB932"/>
<circle cx="294" cy="375" r="9" fill="#FFB932"/>
<circle cx="331" cy="375" r="9" fill="#FFB932"/>
<circle cx="356" cy="353" r="9" fill="#FFB932"/>
<circle cx="377" cy="327" r="9" fill="#FFB932"/>
<circle cx="395" cy="350" r="9" fill="#FFB932"/>
<circle cx="421" cy="371" r="9" fill="#FFB932"/>
<circle cx="452" cy="380" r="9" fill="#FFB932"/>
<circle cx="483" cy="371" r="9" fill="#FFB932"/>
<circle cx="514" cy="366" r="9" fill="#FFB932"/>
<circle cx="548" cy="362" r="9" fill="#FFB932"/>
<circle cx="575" cy="377" r="9" fill="#FFB932"/>
<circle cx="601" cy="398" r="9" fill="#FFB932"/>
<circle cx="638" cy="407" r="9" fill="#FFB932"/>
<circle cx="676" cy="416" r="9" fill="#FFB932"/>
<circle cx="707" cy="434" r="9" fill="#FFB932"/>
<circle cx="732" cy="465" r="9" fill="#FFB932"/>
<circle cx="738" cy="498" r="9" fill="#FFB932"/>
<circle cx="732" cy="536" r="9" fill="#FFB932"/>
<circle cx="707" cy="569" r="9" fill="#FFB932"/>
<circle cx="676" cy="584" r="9" fill="#FFB932"/>
<circle cx="638" cy="593" r="9" fill="#FFB932"/>
<circle cx="601" cy="602" r="9" fill="#FFB932"/>
<circle cx="570" cy="629" r="9" fill="#FFB932"/>
<circle cx="532" cy="647" r="9" fill="#FFB932"/>
<circle cx="496" cy="633" r="9" fill="#FFB932"/>
<circle cx="452" cy="624" r="9" fill="#FFB932"/>
<circle cx="414" cy="638" r="9" fill="#FFB932"/>
<circle cx="392" cy="665" r="9" fill="#FFB932"/>
<circle cx="359" cy="665" r="9" fill="#FFB932"/>
<circle cx="344" cy="638" r="9" fill="#FFB932"/>
<circle cx="306" cy="624" r="9" fill="#FFB932"/>
<circle cx="265" cy="633" r="9" fill="#FFB932"/>
<circle cx="224" cy="642" r="9" fill="#FFB932"/>
<circle cx="351" cy="20" r="20" fill="black"/>
<rect x="188.119" y="561.088" width="16" height="16" transform="rotate(-47.1139 188.119 561.088)" fill="#9DCCC9"/>
<rect x="293.425" y="560.542" width="16" height="16" transform="rotate(-47.1139 293.425 560.542)" fill="#9DCCC9"/>
<rect x="240.425" y="560.663" width="16" height="16" transform="rotate(-47.1139 240.425 560.663)" fill="#9DCCC9"/>
<rect x="345.731" y="560.116" width="16" height="16" transform="rotate(-47.1139 345.731 560.116)" fill="#9DCCC9"/>
<rect x="215.425" y="560.719" width="16" height="16" transform="rotate(-47.1139 215.425 560.719)" fill="#9DCCC9"/>
<rect x="320.731" y="560.173" width="16" height="16" transform="rotate(-47.1139 320.731 560.173)" fill="#9DCCC9"/>
<rect x="267.731" y="560.293" width="16" height="16" transform="rotate(-47.1139 267.731 560.293)" fill="#9DCCC9"/>
<rect x="373.037" y="559.747" width="16" height="16" transform="rotate(-47.1139 373.037 559.747)" fill="#9DCCC9"/>
<rect x="374.116" y="559.666" width="16" height="16" transform="rotate(-47.1139 374.116 559.666)" fill="#9DCCC9"/>
<rect x="479.422" y="559.119" width="16" height="16" transform="rotate(-47.1139 479.422 559.119)" fill="#9DCCC9"/>
<rect x="426.422" y="559.24" width="16" height="16" transform="rotate(-47.1139 426.422 559.24)" fill="#9DCCC9"/>
<rect x="531.728" y="558.693" width="16" height="16" transform="rotate(-47.1139 531.728 558.693)" fill="#9DCCC9"/>
<rect x="401.422" y="559.296" width="16" height="16" transform="rotate(-47.1139 401.422 559.296)" fill="#9DCCC9"/>
<rect x="506.729" y="558.75" width="16" height="16" transform="rotate(-47.1139 506.729 558.75)" fill="#9DCCC9"/>
<rect x="453.729" y="558.871" width="16" height="16" transform="rotate(-47.1139 453.729 558.871)" fill="#9DCCC9"/>
<rect x="559.034" y="558.324" width="16" height="16" transform="rotate(-47.1139 559.034 558.324)" fill="#9DCCC9"/>
<path d="M66.8108 519.727L72.8358 498.052L54.0832 485.624L76.5594 484.656L82.5844 462.981L90.4505 484.058L112.927 483.09L95.312 497.084L103.178 518.161L84.4255 505.733L66.8108 519.727Z" fill="#FFB932"/>
<path d="M668.811 524.727L674.836 503.052L656.083 490.624L678.559 489.656L684.584 467.981L692.45 489.058L714.927 488.09L697.312 502.084L705.178 523.161L686.426 510.733L668.811 524.727Z" fill="#FFB932"/>
<path d="M366.013 438.614L371.151 420.129L355.158 409.53L374.327 408.704L379.465 390.218L386.174 408.194L405.343 407.368L390.32 419.303L397.029 437.279L381.035 426.68L366.013 438.614Z" fill="#FFB932"/>
</svg>
