<svg width="1127" height="1146" viewBox="0 0 1127 1146" fill="none" xmlns="http://www.w3.org/2000/svg">
<path d="M1073.38 235.277L1090.65 236.065L1096.74 219.88L1101.33 236.553L1118.6 237.341L1104.17 246.857L1108.75 263.529L1095.24 252.738L1080.8 262.254L1086.89 246.069L1073.38 235.277Z" fill="#EE2914"/>
<path d="M208.379 1106.28L225.654 1107.07L231.741 1090.88L236.33 1107.55L253.604 1108.34L239.166 1117.86L243.754 1134.53L230.242 1123.74L215.803 1133.25L221.891 1117.07L208.379 1106.28Z" fill="#EE2914"/>
<path d="M17.3791 1025.28L34.6536 1026.07L40.7414 1009.88L45.3299 1026.55L62.6044 1027.34L48.1657 1036.86L52.7542 1053.53L39.2421 1042.74L24.8034 1052.25L30.8912 1036.07L17.3791 1025.28Z" fill="#EE2914"/>
<path d="M204.901 155.983L227.375 157.008L235.295 135.951L241.264 157.642L263.738 158.667L244.953 171.047L250.923 192.738L233.344 178.699L214.56 191.079L222.48 170.022L204.901 155.983Z" fill="#EE2914"/>
<path d="M10.9009 25.9826L33.3746 27.008L41.2946 5.95114L47.2641 27.6417L69.7378 28.6672L50.9535 41.0473L56.923 62.7379L39.3441 48.6986L20.5598 61.0787L28.4798 40.0219L10.9009 25.9826Z" fill="#EE2914"/>
</svg>
