<svg xmlns="http://www.w3.org/2000/svg" width="1402" height="714" fill="none" viewBox="0 0 1402 714">
  <path fill="#EE2914" d="m326.87 46.408-12.587 18.646 13.844 17.733-21.623-6.209-12.588 18.646-.776-22.483-21.624-6.21 21.143-7.686-.777-22.484 13.845 17.733 21.143-7.686Zm704 415-12.59 18.646 13.85 17.733-21.63-6.209-12.584 18.646-.777-22.483-21.623-6.209 21.143-7.687-.777-22.484 13.848 17.733 21.14-7.686ZM79.492 403.557l1.165 22.467 21.728 5.834-21.007 8.051 1.166 22.467-14.149-17.491-21.007 8.052 12.263-18.862-14.15-17.49 21.728 5.833 12.263-18.861ZM1193.95 663.034l22.48 1.026 7.92-21.057 5.97 21.69 22.47 1.026-18.78 12.38 5.96 21.69-17.57-14.039-18.79 12.38 7.92-21.057-17.58-14.039ZM10.9 44.983l22.475 1.025 7.92-21.057 5.97 21.691 22.473 1.025-18.785 12.38 5.97 21.691-17.579-14.04L20.56 80.08l7.92-21.057-17.58-14.04Zm1322-16 22.47 1.025 7.92-21.057 5.97 21.691 22.48 1.025-18.79 12.38 5.97 21.691-17.58-14.04-18.78 12.381 7.92-21.057-17.58-14.04Zm-162.52 482.705 17.27.788 6.09-16.186 4.59 16.673 17.27.788-14.43 9.516 4.58 16.673-13.51-10.791-14.44 9.516 6.09-16.186-13.51-10.791Z"/>
</svg>
