<svg xmlns="http://www.w3.org/2000/svg" width="1310" height="822" fill="none" viewBox="0 0 1310 822">
  <path fill="#EE2914" d="m1240.9 118.982 22.47 1.026 7.92-21.057 5.97 21.69 22.48 1.026-18.79 12.38 5.97 21.691-17.58-14.04-18.78 12.38 7.92-21.056-17.58-14.04Zm-1230-18 22.475 1.026 7.92-21.057 5.97 21.69 22.473 1.026-18.785 12.38 5.97 21.691-17.579-14.04-18.784 12.38 7.92-21.057-17.58-14.039Zm1045-40 22.47 1.026 7.92-21.057 5.97 21.69 22.48 1.026-18.79 12.38 5.97 21.69-17.58-14.039-18.78 12.38 7.92-21.056-17.58-14.04Zm-912.999-32 22.474 1.026 7.92-21.057 5.969 21.69 22.474 1.026-18.785 12.38 5.97 21.69-17.579-14.039-18.784 12.38 7.92-21.056-17.579-14.04Zm93 701 22.474 1.026 7.92-21.057 5.969 21.691 22.474 1.025-18.785 12.38 5.97 21.691-17.579-14.04-18.784 12.38 7.92-21.056-17.579-14.04Zm887.999 41 22.47 1.026 7.92-21.057 5.97 21.691 22.48 1.025-18.79 12.38 5.97 21.691-17.58-14.04-18.78 12.38 7.92-21.056-17.58-14.04Z"/>
</svg>
