<svg xmlns="http://www.w3.org/2000/svg" width="69" height="1652" fill="none" viewBox="0 0 69 1652">
  <path fill="#EE2914" d="m35.15 1590.07 6.951 21.4h22.497l-18.2 13.22 6.952 21.4-18.2-13.23-18.201 13.23 6.952-21.4-18.2-13.22h22.496l6.952-21.4Zm-1.675-79.5 6.952 21.39h22.497l-18.2 13.23 6.952 21.39-18.2-13.22-18.201 13.22 6.952-21.39-18.2-13.23h22.496l6.952-21.39Zm0-79.51 6.952 21.4h22.497l-18.2 13.22 6.952 21.4-18.2-13.22-18.201 13.22 6.952-21.4-18.2-13.22h22.496l6.952-21.4Zm0-79.5 6.952 21.4h22.497l-18.2 13.22 6.952 21.4-18.2-13.23-18.201 13.23 6.952-21.4-18.2-13.22h22.496l6.952-21.4Zm2.511-79.5 6.952 21.39h22.497l-18.2 13.23 6.952 21.39-18.201-13.22-18.2 13.22 6.951-21.39-18.2-13.23h22.497l6.952-21.39Zm-1.674-79.51 6.952 21.4h22.497l-18.2 13.22 6.952 21.4-18.2-13.22-18.201 13.22 6.952-21.4-18.2-13.22H27.36l6.952-21.4Zm0-79.5 6.952 21.4h22.497l-18.2 13.22 6.952 21.39-18.2-13.22-18.201 13.22 6.952-21.39-18.2-13.22H27.36l6.952-21.4Zm0-79.5 6.952 21.39h22.497l-18.2 13.23 6.952 21.39-18.2-13.22-18.201 13.22 6.952-21.39-18.2-13.23H27.36l6.952-21.39Zm3.348-79.508 6.951 21.396h22.497l-18.2 13.224 6.952 21.398-18.2-13.226-18.201 13.226 6.952-21.398-18.2-13.224h22.496l6.952-21.396Zm-1.674-79.503 6.952 21.396h22.497l-18.2 13.223 6.952 21.396-18.201-13.223-18.2 13.223 6.951-21.396-18.2-13.223h22.497l6.952-21.396Zm0-79.504 6.952 21.396h22.497l-18.2 13.224 6.952 21.396-18.201-13.224-18.2 13.224 6.951-21.396-18.2-13.224h22.497l6.952-21.396Zm0-79.503 6.952 21.396h22.497l-18.2 13.223 6.952 21.396-18.201-13.223-18.2 13.223 6.951-21.396-18.2-13.223h22.497l6.952-21.396Zm-1.674-79.504 6.952 21.396h22.497l-18.2 13.223 6.952 21.396-18.2-13.223-18.201 13.223 6.952-21.396-18.2-13.223H27.36l6.952-21.396Zm-1.674-79.504 6.952 21.396h22.497l-18.2 13.224 6.952 21.396-18.2-13.224-18.201 13.224 6.952-21.396-18.2-13.224h22.496l6.952-21.396Zm0-79.503 6.952 21.396h22.497l-18.2 13.223 6.952 21.396-18.2-13.223-18.201 13.223 6.952-21.396-18.2-13.223h22.496l6.952-21.396Zm0-79.503 6.952 21.396h22.497l-18.2 13.223 6.952 21.396-18.2-13.223-18.201 13.223 6.952-21.396-18.2-13.223h22.496l6.952-21.396Zm0-79.504 6.952 21.396h22.497l-18.2 13.224 6.952 21.396-18.2-13.224-18.201 13.224 6.952-21.396-18.2-13.224h22.496l6.952-21.396Zm-1.673-79.503 6.951 21.396h22.498l-18.2 13.223 6.951 21.396-18.2-13.223-18.201 13.223 6.952-21.396-18.2-13.223h22.497l6.951-21.396Zm0-79.504 6.951 21.396h22.498l-18.2 13.224 6.951 21.396-18.2-13.224-18.201 13.224 6.952-21.396-18.2-13.224h22.497l6.951-21.396Zm0-79.504 6.951 21.396h22.498l-18.2 13.224 6.951 21.396-18.2-13.224-18.201 13.224 6.952-21.396-18.2-13.224h22.497l6.951-21.396Zm0-79.503 6.951 21.396h22.498l-18.2 13.223 6.951 21.396-18.2-13.223-18.201 13.223 6.952-21.396-18.2-13.223h22.497L30.964 0Z"/>
</svg>
