<svg width="1142" height="1109" viewBox="0 0 1142 1109" fill="none" xmlns="http://www.w3.org/2000/svg">
<path d="M1055.38 333.277L1072.65 334.065L1078.74 317.88L1083.33 334.553L1100.6 335.341L1086.17 344.857L1090.75 361.529L1077.24 350.738L1062.8 360.254L1068.89 344.069L1055.38 333.277Z" fill="#EE2914"/>
<path d="M8.37907 1069.28L25.6536 1070.07L31.7414 1053.88L36.3299 1070.55L53.6044 1071.34L39.1657 1080.86L43.7542 1097.53L30.2421 1086.74L15.8034 1096.25L21.8912 1080.07L8.37907 1069.28Z" fill="#EE2914"/>
<path d="M1072.9 549.983L1095.37 551.008L1103.29 529.951L1109.26 551.642L1131.74 552.667L1112.95 565.047L1118.92 586.738L1101.34 572.699L1082.56 585.079L1090.48 564.022L1072.9 549.983Z" fill="#EE2914"/>
<path d="M71.9009 28.9826L94.3746 30.008L102.295 8.95114L108.264 30.6417L130.738 31.6672L111.953 44.0473L117.923 65.7379L100.344 51.6986L81.5598 64.0787L89.4798 43.0219L71.9009 28.9826Z" fill="#EE2914"/>
</svg>
