<svg xmlns="http://www.w3.org/2000/svg" width="455" height="113" fill="none" viewBox="0 0 455 113">
  <path fill="#000" d="M39.275 67.104c-.454-1.856-1.11-3.467-1.969-4.831-.843-1.303-1.889-2.359-3.09-3.246-1.078-.654-2.25-1.155-3.654-1.533-1.39-.316-3.289-.573-5.698-.771-2.936-.2-4.867-.319-5.7-.508a12.175 12.175 0 0 1-2.238-.568c-1.357-.455-2.436-1.11-3.203-2.103-.83-.978-1.395-2.217-1.759-3.702-.62-2.538-.424-4.685.714-6.472 1.152-1.724 3.013-2.967 5.736-3.633 2.723-.666 5.316.012 7.872 1.88 2.509 1.944 4.21 4.611 5.027 7.953l1.857-.454-3.48-14.235-.93.227-1.378 3.748c-1.11-.778-2.529-1.218-4.351-1.428a18.127 18.127 0 0 0-5.658.465c-3.466.848-5.932 2.566-7.46 5.17-1.528 2.603-1.867 5.507-1.065 8.787.484 1.98 1.109 3.73 1.967 5.094.797 1.38 1.795 2.513 3.043 3.323 1.047.793 2.296 1.34 3.7 1.719 1.404.378 3.366.62 5.807.679 2.982.123 4.913.241 5.731.37a19.1 19.1 0 0 1 2.146.458c1.296.47 2.312 1.14 3.127 2.056a9.493 9.493 0 0 1 1.743 3.64c.666 2.724.422 4.948-.668 6.658-1.138 1.787-3.075 2.982-5.922 3.678-3.528.863-6.663.383-9.357-1.516-2.68-1.837-4.474-4.613-5.367-8.264l-1.856.454 3.541 14.483.929-.228 1.673-3.885c1.927.906 3.748 1.379 5.402 1.434 1.606.132 3.508-.137 5.736-.682 3.652-.893 6.303-2.656 7.893-5.275 1.59-2.619 1.976-5.6 1.159-8.942Zm32.35 4.791-.363-1.877-6.881 1.333-7.632-39.409 2.627-.508c3.503-.679 6.001-.514 7.495.495 1.43 1.021 2.516 3.277 3.195 6.78l.557 2.877 1.876-.363-2.665-13.762-32.527 6.3 2.665 13.761 1.876-.363-.557-2.877c-.678-3.503-.576-5.99.433-7.483.946-1.481 3.202-2.567 6.768-3.258l2.627-.508 7.632 39.408-6.88 1.333.363 1.876 19.391-3.755Zm39.923-6.345-2.132-14.113-1.89.286.381 2.52c.58 3.843.341 6.521-.72 8.035-1.06 1.513-3.107 2.467-6.194 2.933l-9.45 1.428-2.913-19.278 9.577-1.447.828 5.481 2.205-.333-1.856-12.285-2.206.333.743 4.914-9.576 1.447-2.799-18.522 7.056-1.066c3.717-.562 6.342-.25 7.928.864 1.523 1.123 2.568 3.35 3.082 6.751l.438 2.898 1.89-.285-2.094-13.86-29.61 4.474.285 1.89 5.355-.81 5.997 39.69-5.355.81.286 1.89 30.744-4.645Zm24.664-2.88-.214-1.9-7.598.853-1.841-16.4 2.089-.234c5.699-.64 10.003-2.277 12.906-4.975 2.91-2.635 4.201-5.986 3.753-9.975-.441-3.926-2.372-6.85-5.717-8.655-3.407-1.797-7.967-2.44-13.793-1.785l-13.17 1.479.214 1.899 5.382-.604 4.479 39.89-5.382.604.213 1.9 18.679-2.098Zm2.77-31.857c.427 3.8-.21 6.692-1.847 8.67-1.701 1.987-4.458 3.13-8.257 3.557l-2.532.284-2.425-21.591 2.406-.27c3.926-.441 6.875.125 8.959 1.558 2.028 1.504 3.284 4.12 3.696 7.792Zm59.024 27.786c2.163-.12 3.775-.975 4.705-2.621.929-1.647 1.291-4.347 1.086-8.037l-1.717.095c.144 2.608-.005 4.53-.32 5.76-.311 1.294-.979 1.906-1.87 1.955-.636.035-1.099-.258-1.516-.873-.417-.616-1.183-2.934-2.433-7.077-.625-2.071-1.282-3.566-1.844-4.492a9.73 9.73 0 0 0-2.24-2.429c-.863-.59-1.916-1.17-3.16-1.74-1.243-.569-2.675-1.064-4.364-1.609 3.605-.582 6.592-1.96 8.953-4.26 2.302-2.233 3.437-4.785 3.278-7.647-.2-3.627-1.949-6.401-5.243-8.261-3.293-1.86-7.866-2.628-13.592-2.311l-13.233.732.106 1.908 5.408-.299 2.217 40.08-5.408.299.106 1.908 18.767-1.038-.105-1.908-7.634.422-1.018-18.386 2.036-.112c2.799-.155 4.938.428 6.478 1.747 1.477 1.322 2.897 3.924 4.201 7.872.614 1.88 1.08 3.386 1.525 4.51.382 1.128.682 1.94.958 2.308.71 1.301 1.526 2.213 2.452 2.8.926.587 2.085.778 3.421.704Zm-7.8-32.56c.183 3.308-.694 5.91-2.575 7.673-1.877 1.826-4.757 2.815-8.575 3.026l-2.226.124-1.095-19.786 2.418-.133c3.817-.211 6.725.457 8.725 2.006 2.001 1.548 3.152 3.91 3.328 7.09Zm35.211 29.357-5.733.11-.766-40.134 5.733-.11-.036-1.91-17.2.328.036 1.911 5.734-.11.766 40.134-5.734.11.037 1.91 17.2-.328-.037-1.91Zm36.108 2.898.334-18.793 5.096.091.034-1.911-17.2-.306-.034 1.911 6.371.113-.26 14.589a9.042 9.042 0 0 1-3.088 1.666c-1.154.361-2.495.529-3.897.504-4.141-.074-7.232-1.85-9.334-5.456-2.104-3.542-3.095-8.721-2.974-15.538.123-6.88 1.234-12.022 3.397-15.425 2.164-3.402 5.38-5.066 9.648-4.99 3.376.06 5.969 1.19 7.714 3.388 1.745 2.197 2.581 5.398 2.507 9.54l1.911.033.261-14.652-.956-.017-2.59 2.312c-1.07-.72-2.398-1.317-3.983-1.792-1.649-.412-3.237-.695-4.83-.723-2.739-.049-5.299.543-7.679 1.775-2.443 1.231-4.513 2.979-6.339 5.304-1.695 2.137-3.012 4.535-3.952 7.194-.939 2.66-1.433 5.328-1.479 7.94-.048 2.675.286 5.422 1.13 8.113.843 2.755 2.011 5.198 3.566 7.328 1.74 2.453 3.747 4.273 6.145 5.59 2.335 1.316 4.937 1.936 7.803 1.987 1.784.032 3.444-.13 4.916-.486a16.438 16.438 0 0 0 4.3-1.708l2.506 2.402.956.017Zm25.143.711.141-1.907-5.401-.399 1.441-19.507 17.791 1.314-1.441 19.508-5.401-.4-.14 1.907 16.521 1.22.14-1.906-5.401-.399 2.957-40.032 5.401.4.141-1.907-16.521-1.22-.141 1.906 5.402.399-1.376 18.618-17.792-1.314 1.376-18.618 5.401.399.141-1.907-16.521-1.22-.141 1.906 5.401.4-2.957 40.031-5.401-.399-.141 1.906 16.521 1.22Zm54.112 5.709.252-1.895-6.947-.927 5.307-39.788 2.653.354c3.537.471 5.852 1.423 6.947 2.855 1.031 1.423 1.343 3.907.871 7.444l-.387 2.905 1.894.253 1.854-13.895-32.842-4.38-1.853 13.894 1.895.253.387-2.905c.472-3.537 1.361-5.861 2.792-6.956 1.369-1.103 3.853-1.414 7.453-.934l2.652.354-5.307 39.788-6.947-.926-.253 1.894 19.579 2.612Zm66.279-29.689 5.279 1.21.427-1.863-13.663-3.133-.427 1.863 5.9 1.353-6.122 26.705c-1.083 4.72-2.597 7.903-4.543 9.548-1.946 1.646-4.534 2.098-7.763 1.358-3.229-.74-5.362-2.275-6.382-4.666-1.035-2.33-1.012-5.854.042-10.45l6.137-26.767 5.9 1.353.427-1.863-16.768-3.844-.428 1.863 5.279 1.21-6.122 26.705c-1.196 5.217-.947 9.261.81 12.148 1.757 2.887 5.088 4.893 9.995 6.017 4.347.997 7.771.605 10.299-1.299 2.528-1.904 4.39-5.465 5.601-10.744l6.122-26.704ZM422.8 83.393l.564-1.826-7.306-2.255 4.866-15.768 2.009.62c5.48 1.69 10.08 1.91 13.819.597 3.721-1.253 6.243-3.808 7.427-7.644 1.165-3.775.563-7.227-1.781-10.218-2.406-3.01-6.329-5.42-11.93-7.15l-12.664-3.907-.563 1.826 5.175 1.597-11.837 38.356-5.175-1.597-.564 1.826 17.96 5.543ZM438.072 55.3c-1.128 3.653-2.868 6.05-5.159 7.21-2.353 1.14-5.337 1.087-8.99-.04l-2.435-.752 6.407-20.76 2.313.713c3.775 1.165 6.252 2.863 7.59 5.01 1.258 2.188 1.363 5.088.274 8.62Z"/>
</svg>
