<svg width="813" height="18" viewBox="0 0 813 18" fill="none" xmlns="http://www.w3.org/2000/svg">
<path fill-rule="evenodd" clip-rule="evenodd" d="M31.8216 17.4683C31.8517 17.0722 31.8671 16.6719 31.8671 16.268C31.8671 7.64925 24.8802 0.662354 16.2614 0.662354C7.64266 0.662354 0.655762 7.64925 0.655762 16.268C0.655762 16.6719 0.671104 17.0722 0.701237 17.4683H31.8216Z" fill="#EE2914"/>
<path fill-rule="evenodd" clip-rule="evenodd" d="M125.456 17.4685C125.486 17.0723 125.501 16.6719 125.501 16.268C125.501 7.64925 118.514 0.662354 109.895 0.662354C101.277 0.662354 94.2898 7.64925 94.2898 16.268C94.2898 16.6719 94.3051 17.0723 94.3353 17.4685H125.456Z" fill="#EE2914"/>
<path fill-rule="evenodd" clip-rule="evenodd" d="M63.033 17.4685C63.0632 17.0723 63.0785 16.6719 63.0785 16.268C63.0785 7.64925 56.0916 0.662354 47.4729 0.662354C38.8541 0.662354 31.8672 7.64925 31.8672 16.268C31.8672 16.6719 31.8825 17.0723 31.9127 17.4685H63.033Z" fill="#EE2914"/>
<path fill-rule="evenodd" clip-rule="evenodd" d="M156.667 17.4685C156.697 17.0723 156.712 16.6719 156.712 16.268C156.712 7.64925 149.725 0.662354 141.107 0.662354C132.488 0.662354 125.501 7.64925 125.501 16.268C125.501 16.6719 125.516 17.0723 125.546 17.4685H156.667Z" fill="#EE2914"/>
<path fill-rule="evenodd" clip-rule="evenodd" d="M94.2442 17.4685C94.2744 17.0723 94.2897 16.6719 94.2897 16.268C94.2897 7.64925 87.3028 0.662354 78.684 0.662354C70.0653 0.662354 63.0784 7.64925 63.0784 16.268C63.0784 16.6719 63.0937 17.0723 63.1239 17.4685H94.2442Z" fill="#EE2914"/>
<path fill-rule="evenodd" clip-rule="evenodd" d="M187.878 17.4685C187.908 17.0723 187.924 16.6719 187.924 16.268C187.924 7.64925 180.937 0.662354 172.318 0.662354C163.699 0.662354 156.712 7.64925 156.712 16.268C156.712 16.6719 156.728 17.0723 156.758 17.4685H187.878Z" fill="#EE2914"/>
<path fill-rule="evenodd" clip-rule="evenodd" d="M219.09 17.4685C219.12 17.0723 219.135 16.6719 219.135 16.268C219.135 7.64925 212.148 0.662354 203.529 0.662354C194.911 0.662354 187.924 7.64925 187.924 16.268C187.924 16.6719 187.939 17.0723 187.969 17.4685H219.09Z" fill="#EE2914"/>
<path fill-rule="evenodd" clip-rule="evenodd" d="M312.723 17.4685C312.754 17.0723 312.769 16.6719 312.769 16.268C312.769 7.64925 305.782 0.662354 297.163 0.662354C288.545 0.662354 281.558 7.64925 281.558 16.268C281.558 16.6719 281.573 17.0723 281.603 17.4685H312.723Z" fill="#EE2914"/>
<path fill-rule="evenodd" clip-rule="evenodd" d="M250.301 17.4685C250.331 17.0723 250.346 16.6719 250.346 16.268C250.346 7.64925 243.359 0.662354 234.741 0.662354C226.122 0.662354 219.135 7.64925 219.135 16.268C219.135 16.6719 219.15 17.0723 219.18 17.4685H250.301Z" fill="#EE2914"/>
<path fill-rule="evenodd" clip-rule="evenodd" d="M343.935 17.4685C343.965 17.0723 343.98 16.6719 343.98 16.268C343.98 7.64925 336.993 0.662354 328.375 0.662354C319.756 0.662354 312.769 7.64925 312.769 16.268C312.769 16.6719 312.784 17.0723 312.815 17.4685H343.935Z" fill="#EE2914"/>
<path fill-rule="evenodd" clip-rule="evenodd" d="M281.512 17.4685C281.542 17.0723 281.558 16.6719 281.558 16.268C281.558 7.64925 274.571 0.662354 265.952 0.662354C257.333 0.662354 250.346 7.64925 250.346 16.268C250.346 16.6719 250.362 17.0723 250.392 17.4685H281.512Z" fill="#EE2914"/>
<path fill-rule="evenodd" clip-rule="evenodd" d="M375.146 17.4685C375.176 17.0723 375.192 16.6719 375.192 16.268C375.192 7.64925 368.205 0.662354 359.586 0.662354C350.967 0.662354 343.98 7.64925 343.98 16.268C343.98 16.6719 343.996 17.0723 344.026 17.4685H375.146Z" fill="#EE2914"/>
<path fill-rule="evenodd" clip-rule="evenodd" d="M406.357 17.4685C406.388 17.0723 406.403 16.6719 406.403 16.268C406.403 7.64925 399.416 0.662354 390.797 0.662354C382.179 0.662354 375.192 7.64925 375.192 16.268C375.192 16.6719 375.207 17.0723 375.237 17.4685H406.357Z" fill="#EE2914"/>
<path fill-rule="evenodd" clip-rule="evenodd" d="M499.991 17.4685C500.021 17.0723 500.037 16.6719 500.037 16.268C500.037 7.64925 493.05 0.662354 484.431 0.662354C475.812 0.662354 468.825 7.64925 468.825 16.268C468.825 16.6719 468.841 17.0723 468.871 17.4685H499.991Z" fill="#EE2914"/>
<path fill-rule="evenodd" clip-rule="evenodd" d="M437.569 17.4685C437.599 17.0723 437.614 16.6719 437.614 16.268C437.614 7.64925 430.627 0.662354 422.008 0.662354C413.39 0.662354 406.403 7.64925 406.403 16.268C406.403 16.6719 406.418 17.0723 406.448 17.4685H437.569Z" fill="#EE2914"/>
<path fill-rule="evenodd" clip-rule="evenodd" d="M531.203 17.4685C531.233 17.0723 531.248 16.6719 531.248 16.268C531.248 7.64925 524.261 0.662354 515.643 0.662354C507.024 0.662354 500.037 7.64925 500.037 16.268C500.037 16.6719 500.052 17.0723 500.082 17.4685H531.203Z" fill="#EE2914"/>
<path fill-rule="evenodd" clip-rule="evenodd" d="M468.78 17.4685C468.81 17.0723 468.826 16.6719 468.826 16.268C468.826 7.64925 461.839 0.662354 453.22 0.662354C444.601 0.662354 437.614 7.64925 437.614 16.268C437.614 16.6719 437.63 17.0723 437.66 17.4685H468.78Z" fill="#EE2914"/>
<path fill-rule="evenodd" clip-rule="evenodd" d="M562.414 17.4685C562.444 17.0723 562.459 16.6719 562.459 16.268C562.459 7.64925 555.472 0.662354 546.854 0.662354C538.235 0.662354 531.248 7.64925 531.248 16.268C531.248 16.6719 531.263 17.0723 531.294 17.4685H562.414Z" fill="#EE2914"/>
<path fill-rule="evenodd" clip-rule="evenodd" d="M593.625 17.4685C593.655 17.0723 593.671 16.6719 593.671 16.268C593.671 7.64925 586.684 0.662354 578.065 0.662354C569.446 0.662354 562.459 7.64925 562.459 16.268C562.459 16.6719 562.475 17.0723 562.505 17.4685H593.625Z" fill="#EE2914"/>
<path fill-rule="evenodd" clip-rule="evenodd" d="M687.26 17.4685C687.29 17.0723 687.305 16.6719 687.305 16.268C687.305 7.64925 680.318 0.662354 671.699 0.662354C663.081 0.662354 656.094 7.64925 656.094 16.268C656.094 16.6719 656.109 17.0723 656.139 17.4685H687.26Z" fill="#EE2914"/>
<path fill-rule="evenodd" clip-rule="evenodd" d="M624.837 17.4685C624.867 17.0723 624.882 16.6719 624.882 16.268C624.882 7.64925 617.895 0.662354 609.277 0.662354C600.658 0.662354 593.671 7.64925 593.671 16.268C593.671 16.6719 593.686 17.0723 593.716 17.4685H624.837Z" fill="#EE2914"/>
<path fill-rule="evenodd" clip-rule="evenodd" d="M718.471 17.4685C718.501 17.0723 718.517 16.6719 718.517 16.268C718.517 7.64925 711.53 0.662354 702.911 0.662354C694.292 0.662354 687.305 7.64925 687.305 16.268C687.305 16.6719 687.321 17.0723 687.351 17.4685H718.471Z" fill="#EE2914"/>
<path fill-rule="evenodd" clip-rule="evenodd" d="M656.048 17.4685C656.078 17.0723 656.094 16.6719 656.094 16.268C656.094 7.64925 649.107 0.662354 640.488 0.662354C631.869 0.662354 624.882 7.64925 624.882 16.268C624.882 16.6719 624.898 17.0723 624.928 17.4685H656.048Z" fill="#EE2914"/>
<path fill-rule="evenodd" clip-rule="evenodd" d="M749.682 17.4685C749.712 17.0723 749.727 16.6719 749.727 16.268C749.727 7.64925 742.741 0.662354 734.122 0.662354C725.503 0.662354 718.516 7.64925 718.516 16.268C718.516 16.6719 718.531 17.0723 718.562 17.4685H749.682Z" fill="#EE2914"/>
<path fill-rule="evenodd" clip-rule="evenodd" d="M780.893 17.4685C780.924 17.0723 780.939 16.6719 780.939 16.268C780.939 7.64925 773.952 0.662354 765.333 0.662354C756.714 0.662354 749.728 7.64925 749.728 16.268C749.728 16.6719 749.743 17.0723 749.773 17.4685H780.893Z" fill="#EE2914"/>
<path fill-rule="evenodd" clip-rule="evenodd" d="M812.105 17.4685C812.135 17.0723 812.15 16.6719 812.15 16.268C812.15 7.64925 805.163 0.662354 796.545 0.662354C787.926 0.662354 780.939 7.64925 780.939 16.268C780.939 16.6719 780.954 17.0723 780.984 17.4685H812.105Z" fill="#EE2914"/>
</svg>
