<svg width="813" height="15" viewBox="0 0 813 15" fill="none" xmlns="http://www.w3.org/2000/svg">
<path fill-rule="evenodd" clip-rule="evenodd" d="M31.815 0.300577C31.8452 0.640173 31.8605 0.983314 31.8605 1.32953C31.8605 8.71704 24.8736 14.7058 16.2548 14.7058C7.63606 14.7058 0.64917 8.71704 0.64917 1.32953C0.64917 0.983314 0.664515 0.640173 0.694654 0.300577H31.815Z" fill="#EE2914"/>
<path fill-rule="evenodd" clip-rule="evenodd" d="M125.449 0.300577C125.479 0.640173 125.495 0.983314 125.495 1.32953C125.495 8.71704 118.508 14.7058 109.889 14.7058C101.27 14.7058 94.2832 8.71704 94.2832 1.32953C94.2832 0.983314 94.2985 0.640173 94.3287 0.300577H125.449Z" fill="#EE2914"/>
<path fill-rule="evenodd" clip-rule="evenodd" d="M63.0264 0.300577C63.0566 0.640173 63.0719 0.983314 63.0719 1.32953C63.0719 8.71704 56.085 14.7058 47.4663 14.7058C38.8475 14.7058 31.8606 8.71704 31.8606 1.32953C31.8606 0.983314 31.8759 0.640173 31.9061 0.300577H63.0264Z" fill="#EE2914"/>
<path fill-rule="evenodd" clip-rule="evenodd" d="M156.66 0.300577C156.691 0.640173 156.706 0.983314 156.706 1.32953C156.706 8.71704 149.719 14.7058 141.1 14.7058C132.482 14.7058 125.495 8.71704 125.495 1.32953C125.495 0.983314 125.51 0.640173 125.54 0.300577H156.66Z" fill="#EE2914"/>
<path fill-rule="evenodd" clip-rule="evenodd" d="M94.2376 0.300577C94.2678 0.640173 94.2831 0.983314 94.2831 1.32953C94.2831 8.71704 87.2962 14.7058 78.6774 14.7058C70.0587 14.7058 63.0718 8.71704 63.0718 1.32953C63.0718 0.983314 63.0871 0.640173 63.1173 0.300577H94.2376Z" fill="#EE2914"/>
<path fill-rule="evenodd" clip-rule="evenodd" d="M187.872 0.300577C187.902 0.640173 187.917 0.983314 187.917 1.32953C187.917 8.71704 180.93 14.7058 172.311 14.7058C163.693 14.7058 156.706 8.71704 156.706 1.32953C156.706 0.983314 156.721 0.640173 156.751 0.300577H187.872Z" fill="#EE2914"/>
<path fill-rule="evenodd" clip-rule="evenodd" d="M219.083 0.300577C219.113 0.640173 219.129 0.983314 219.129 1.32953C219.129 8.71704 212.142 14.7058 203.523 14.7058C194.904 14.7058 187.917 8.71704 187.917 1.32953C187.917 0.983314 187.933 0.640173 187.963 0.300577H219.083Z" fill="#EE2914"/>
<path fill-rule="evenodd" clip-rule="evenodd" d="M312.717 0.300577C312.747 0.640173 312.763 0.983314 312.763 1.32953C312.763 8.71704 305.776 14.7058 297.157 14.7058C288.538 14.7058 281.551 8.71704 281.551 1.32953C281.551 0.983314 281.567 0.640173 281.597 0.300577H312.717Z" fill="#EE2914"/>
<path fill-rule="evenodd" clip-rule="evenodd" d="M250.294 0.300577C250.324 0.640173 250.34 0.983314 250.34 1.32953C250.34 8.71704 243.353 14.7058 234.734 14.7058C226.115 14.7058 219.128 8.71704 219.128 1.32953C219.128 0.983314 219.144 0.640173 219.174 0.300577H250.294Z" fill="#EE2914"/>
<path fill-rule="evenodd" clip-rule="evenodd" d="M343.928 0.300577C343.958 0.640173 343.974 0.983314 343.974 1.32953C343.974 8.71704 336.987 14.7058 328.368 14.7058C319.749 14.7058 312.762 8.71704 312.762 1.32953C312.762 0.983314 312.778 0.640173 312.808 0.300577H343.928Z" fill="#EE2914"/>
<path fill-rule="evenodd" clip-rule="evenodd" d="M281.506 0.300577C281.536 0.640173 281.551 0.983314 281.551 1.32953C281.551 8.71704 274.564 14.7058 265.946 14.7058C257.327 14.7058 250.34 8.71704 250.34 1.32953C250.34 0.983314 250.355 0.640173 250.385 0.300577H281.506Z" fill="#EE2914"/>
<path fill-rule="evenodd" clip-rule="evenodd" d="M375.14 0.300577C375.17 0.640173 375.185 0.983314 375.185 1.32953C375.185 8.71704 368.198 14.7058 359.58 14.7058C350.961 14.7058 343.974 8.71704 343.974 1.32953C343.974 0.983314 343.989 0.640173 344.019 0.300577H375.14Z" fill="#EE2914"/>
<path fill-rule="evenodd" clip-rule="evenodd" d="M406.351 0.300577C406.381 0.640173 406.396 0.983314 406.396 1.32953C406.396 8.71704 399.409 14.7058 390.791 14.7058C382.172 14.7058 375.185 8.71704 375.185 1.32953C375.185 0.983314 375.2 0.640173 375.231 0.300577H406.351Z" fill="#EE2914"/>
<path fill-rule="evenodd" clip-rule="evenodd" d="M499.985 0.300577C500.015 0.640173 500.03 0.983314 500.03 1.32953C500.03 8.71704 493.044 14.7058 484.425 14.7058C475.806 14.7058 468.819 8.71704 468.819 1.32953C468.819 0.983314 468.834 0.640173 468.865 0.300577H499.985Z" fill="#EE2914"/>
<path fill-rule="evenodd" clip-rule="evenodd" d="M437.562 0.300577C437.592 0.640173 437.608 0.983314 437.608 1.32953C437.608 8.71704 430.621 14.7058 422.002 14.7058C413.383 14.7058 406.396 8.71704 406.396 1.32953C406.396 0.983314 406.412 0.640173 406.442 0.300577H437.562Z" fill="#EE2914"/>
<path fill-rule="evenodd" clip-rule="evenodd" d="M531.196 0.300577C531.227 0.640173 531.242 0.983314 531.242 1.32953C531.242 8.71704 524.255 14.7058 515.636 14.7058C507.017 14.7058 500.031 8.71704 500.031 1.32953C500.031 0.983314 500.046 0.640173 500.076 0.300577H531.196Z" fill="#EE2914"/>
<path fill-rule="evenodd" clip-rule="evenodd" d="M468.774 0.300577C468.804 0.640173 468.819 0.983314 468.819 1.32953C468.819 8.71704 461.832 14.7058 453.214 14.7058C444.595 14.7058 437.608 8.71704 437.608 1.32953C437.608 0.983314 437.623 0.640173 437.653 0.300577H468.774Z" fill="#EE2914"/>
<path fill-rule="evenodd" clip-rule="evenodd" d="M562.408 0.300577C562.438 0.640173 562.453 0.983314 562.453 1.32953C562.453 8.71704 555.466 14.7058 546.848 14.7058C538.229 14.7058 531.242 8.71704 531.242 1.32953C531.242 0.983314 531.257 0.640173 531.287 0.300577H562.408Z" fill="#EE2914"/>
<path fill-rule="evenodd" clip-rule="evenodd" d="M593.619 0.300577C593.649 0.640173 593.664 0.983314 593.664 1.32953C593.664 8.71704 586.678 14.7058 578.059 14.7058C569.44 14.7058 562.453 8.71704 562.453 1.32953C562.453 0.983314 562.468 0.640173 562.499 0.300577H593.619Z" fill="#EE2914"/>
<path fill-rule="evenodd" clip-rule="evenodd" d="M687.253 0.300577C687.283 0.640173 687.298 0.983314 687.298 1.32953C687.298 8.71704 680.311 14.7058 671.693 14.7058C663.074 14.7058 656.087 8.71704 656.087 1.32953C656.087 0.983314 656.102 0.640173 656.132 0.300577H687.253Z" fill="#EE2914"/>
<path fill-rule="evenodd" clip-rule="evenodd" d="M624.83 0.300577C624.861 0.640173 624.876 0.983314 624.876 1.32953C624.876 8.71704 617.889 14.7058 609.27 14.7058C600.651 14.7058 593.665 8.71704 593.665 1.32953C593.665 0.983314 593.68 0.640173 593.71 0.300577H624.83Z" fill="#EE2914"/>
<path fill-rule="evenodd" clip-rule="evenodd" d="M718.464 0.300577C718.494 0.640173 718.51 0.983314 718.51 1.32953C718.51 8.71704 711.523 14.7058 702.904 14.7058C694.285 14.7058 687.298 8.71704 687.298 1.32953C687.298 0.983314 687.314 0.640173 687.344 0.300577H718.464Z" fill="#EE2914"/>
<path fill-rule="evenodd" clip-rule="evenodd" d="M656.042 0.300577C656.072 0.640173 656.087 0.983314 656.087 1.32953C656.087 8.71704 649.1 14.7058 640.482 14.7058C631.863 14.7058 624.876 8.71704 624.876 1.32953C624.876 0.983314 624.891 0.640173 624.921 0.300577H656.042Z" fill="#EE2914"/>
<path fill-rule="evenodd" clip-rule="evenodd" d="M749.676 0.300577C749.706 0.640173 749.721 0.983314 749.721 1.32953C749.721 8.71704 742.734 14.7058 734.115 14.7058C725.497 14.7058 718.51 8.71704 718.51 1.32953C718.51 0.983314 718.525 0.640173 718.555 0.300577H749.676Z" fill="#EE2914"/>
<path fill-rule="evenodd" clip-rule="evenodd" d="M780.887 0.300577C780.917 0.640173 780.933 0.983314 780.933 1.32953C780.933 8.71704 773.946 14.7058 765.327 14.7058C756.708 14.7058 749.721 8.71704 749.721 1.32953C749.721 0.983314 749.737 0.640173 749.767 0.300577H780.887Z" fill="#EE2914"/>
<path fill-rule="evenodd" clip-rule="evenodd" d="M812.098 0.300577C812.129 0.640173 812.144 0.983314 812.144 1.32953C812.144 8.71704 805.157 14.7058 796.538 14.7058C787.92 14.7058 780.933 8.71704 780.933 1.32953C780.933 0.983314 780.948 0.640173 780.978 0.300577H812.098Z" fill="#EE2914"/>
</svg>
