<svg xmlns="http://www.w3.org/2000/svg" width="1098" height="1545" fill="none" viewBox="0 0 1098 1545">
  <path fill="#EE2914" d="M29.412.4 165.06 201.475l16.806 15.005L76.229 332.321 0 253.093V.401h29.41Z"/>
  <path fill="#E73726" d="M82.23 420.553 1.803 370.135v171.662l80.429 39.615V420.553Z"/>
  <path fill="#EE2914" d="m76.229 757.876-74.427-8.403V608.422l74.427 16.806v132.648ZM1.802 807.094l74.427-7.203v118.243l-74.427 28.21v-139.25Zm0 205.876 74.427-42.617 7.202 154.857-81.63 56.42v-168.66Zm0 288.7 81.63-85.83h100.236l-14.405 132.05-142.252 196.27H1.8v-242.49Zm167.461 242.49 64.823-133.85 80.429-18.6 70.226 53.42-24.009 99.03H169.263Zm291.705 0 8.403-99.03h156.657l7.203 99.03H460.968Zm276.101 0-25.21-99.03 148.254-43.22 66.024 142.25H737.069Zm189.068-196.27 143.453 196.27h28.21v-242.49l-84.63-85.83h-30.612l-56.421 132.05Zm171.663-168.66-84.63-54.02V969.153l84.63 42.017v168.06Zm0-232.886-84.63-25.209V790.288l84.63 13.805v142.251Zm-84.63-186.067 84.63-13.805V604.22l-84.63 25.209v130.848Zm84.63-218.48-84.63 38.414V429.557l84.63-56.421v168.661Zm0-284.503-84.63 79.229h-30.612l-63.623-133.849L1068.39 4.002h29.41v253.292ZM855.912 152.856 918.935 4.002H737.069l-34.813 148.854h153.656Zm-237.086-51.619L631.43 4.002H457.967l10.204 97.235h150.655ZM355.33 4.002l29.411 97.235-153.656 51.619L166.261 4.002H355.33Z"/>
</svg>
