<svg width="1029" height="452" viewBox="0 0 1029 452" fill="none" xmlns="http://www.w3.org/2000/svg">
<path fill-rule="evenodd" clip-rule="evenodd" d="M947.078 73.9621C946.795 73.9881 946.509 74.0017 946.221 74.0026C940.067 74.0211 935.061 68.2157 935.039 61.0361C935.017 53.8564 939.989 48.0212 946.143 48.0027C946.431 48.0018 946.717 48.0138 947 48.038L947.078 73.9621Z" fill="#EE2914"/>
<path fill-rule="evenodd" clip-rule="evenodd" d="M947.312 151.962C947.029 151.988 946.743 152.001 946.455 152.002C940.301 152.021 935.294 146.215 935.273 139.036C935.251 131.856 940.223 126.021 946.377 126.002C946.665 126.002 946.951 126.014 947.234 126.038L947.312 151.962Z" fill="#EE2914"/>
<path fill-rule="evenodd" clip-rule="evenodd" d="M947.156 99.9621C946.873 99.9881 946.587 100.002 946.299 100.003C940.145 100.021 935.139 94.2157 935.117 87.0361C935.096 79.8564 940.067 74.0212 946.221 74.0027C946.509 74.0018 946.795 74.0138 947.078 74.038L947.156 99.9621Z" fill="#EE2914"/>
<path fill-rule="evenodd" clip-rule="evenodd" d="M947.39 177.962C947.107 177.988 946.821 178.001 946.533 178.002C940.379 178.021 935.373 172.215 935.351 165.036C935.329 157.856 940.301 152.021 946.455 152.002C946.743 152.001 947.029 152.013 947.312 152.038L947.39 177.962Z" fill="#EE2914"/>
<path fill-rule="evenodd" clip-rule="evenodd" d="M947.234 125.962C946.951 125.988 946.665 126.001 946.377 126.002C940.223 126.021 935.216 120.215 935.195 113.036C935.173 105.856 940.145 100.021 946.299 100.002C946.587 100.002 946.873 100.014 947.156 100.038L947.234 125.962Z" fill="#EE2914"/>
<path fill-rule="evenodd" clip-rule="evenodd" d="M947.468 203.962C947.185 203.988 946.899 204.001 946.611 204.002C940.457 204.021 935.451 198.215 935.429 191.036C935.408 183.856 940.379 178.021 946.533 178.002C946.821 178.001 947.107 178.013 947.39 178.038L947.468 203.962Z" fill="#EE2914"/>
<path fill-rule="evenodd" clip-rule="evenodd" d="M947.546 229.961C947.263 229.987 946.977 230.001 946.689 230.002C940.535 230.02 935.528 224.215 935.507 217.035C935.485 209.856 940.457 204.02 946.611 204.002C946.899 204.001 947.185 204.013 947.468 204.037L947.546 229.961Z" fill="#EE2914"/>
<path fill-rule="evenodd" clip-rule="evenodd" d="M947.779 307.961C947.497 307.987 947.211 308.001 946.922 308.002C940.768 308.02 935.762 302.215 935.741 295.035C935.719 287.855 940.69 282.02 946.844 282.002C947.133 282.001 947.419 282.013 947.702 282.037L947.779 307.961Z" fill="#EE2914"/>
<path fill-rule="evenodd" clip-rule="evenodd" d="M947.624 255.961C947.341 255.987 947.055 256.001 946.767 256.002C940.613 256.02 935.606 250.215 935.585 243.035C935.563 235.856 940.535 230.02 946.689 230.002C946.977 230.001 947.263 230.013 947.546 230.037L947.624 255.961Z" fill="#EE2914"/>
<path fill-rule="evenodd" clip-rule="evenodd" d="M947.858 333.961C947.575 333.987 947.289 334.001 947.001 334.002C940.847 334.02 935.84 328.215 935.819 321.035C935.797 313.855 940.769 308.02 946.923 308.002C947.211 308.001 947.497 308.013 947.78 308.037L947.858 333.961Z" fill="#EE2914"/>
<path fill-rule="evenodd" clip-rule="evenodd" d="M947.701 281.961C947.419 281.987 947.133 282.001 946.844 282.002C940.69 282.02 935.684 276.215 935.663 269.035C935.641 261.855 940.612 256.02 946.766 256.002C947.055 256.001 947.341 256.013 947.624 256.037L947.701 281.961Z" fill="#EE2914"/>
<path fill-rule="evenodd" clip-rule="evenodd" d="M947.936 359.961C947.653 359.987 947.367 360 947.079 360.001C940.925 360.02 935.918 354.214 935.897 347.035C935.875 339.855 940.847 334.02 947.001 334.001C947.289 334 947.575 334.012 947.858 334.037L947.936 359.961Z" fill="#EE2914"/>
<path fill-rule="evenodd" clip-rule="evenodd" d="M948.013 385.961C947.731 385.987 947.445 386 947.156 386.001C941.002 386.02 935.996 380.214 935.975 373.035C935.953 365.855 940.924 360.02 947.078 360.001C947.367 360 947.653 360.012 947.936 360.037L948.013 385.961Z" fill="#EE2914"/>
<path fill-rule="evenodd" clip-rule="evenodd" d="M948.091 411.961C947.809 411.987 947.523 412 947.234 412.001C941.08 412.02 936.074 406.214 936.053 399.035C936.031 391.855 941.002 386.02 947.156 386.001C947.445 386 947.731 386.012 948.014 386.037L948.091 411.961Z" fill="#EE2914"/>
<path fill-rule="evenodd" clip-rule="evenodd" d="M840.115 54.1C840.561 54.1354 841.013 54.1528 841.468 54.1515C851.177 54.1223 859.022 45.57 858.991 35.0494C858.959 24.5287 851.063 16.0236 841.353 16.0527C840.898 16.0541 840.447 16.0742 840.001 16.1123L840.115 54.1Z" fill="#EE2914"/>
<path fill-rule="evenodd" clip-rule="evenodd" d="M840.458 168.396C840.904 168.432 841.355 168.449 841.81 168.448C851.52 168.419 859.365 159.866 859.334 149.346C859.302 138.825 851.405 130.32 841.696 130.349C841.241 130.35 840.79 130.371 840.344 130.409L840.458 168.396Z" fill="#EE2914"/>
<path fill-rule="evenodd" clip-rule="evenodd" d="M840.229 92.1986C840.675 92.2341 841.126 92.2515 841.581 92.2501C851.291 92.221 859.136 83.6687 859.105 73.148C859.073 62.6273 851.176 54.1222 841.467 54.1514C841.012 54.1527 840.561 54.1728 840.115 54.211L840.229 92.1986Z" fill="#EE2914"/>
<path fill-rule="evenodd" clip-rule="evenodd" d="M840.572 206.495C841.018 206.53 841.47 206.548 841.925 206.546C851.634 206.517 859.479 197.965 859.448 187.444C859.416 176.923 851.52 168.418 841.81 168.448C841.355 168.449 840.904 168.469 840.458 168.507L840.572 206.495Z" fill="#EE2914"/>
<path fill-rule="evenodd" clip-rule="evenodd" d="M840.344 130.298C840.79 130.333 841.241 130.35 841.696 130.349C851.405 130.32 859.251 121.768 859.219 111.247C859.188 100.726 851.291 92.2211 841.582 92.2502C841.127 92.2516 840.676 92.2717 840.23 92.3098L840.344 130.298Z" fill="#EE2914"/>
<path fill-rule="evenodd" clip-rule="evenodd" d="M840.686 244.594C841.133 244.629 841.584 244.647 842.038 244.645C851.748 244.616 859.593 236.064 859.562 225.543C859.53 215.023 851.633 206.518 841.924 206.547C841.469 206.548 841.018 206.568 840.572 206.606L840.686 244.594Z" fill="#EE2914"/>
<path fill-rule="evenodd" clip-rule="evenodd" d="M840.801 282.692C841.248 282.728 841.699 282.745 842.154 282.744C851.863 282.715 859.708 274.162 859.677 263.642C859.645 253.121 851.749 244.616 842.039 244.645C841.584 244.646 841.134 244.666 840.687 244.705L840.801 282.692Z" fill="#EE2914"/>
<path fill-rule="evenodd" clip-rule="evenodd" d="M841.144 396.989C841.591 397.024 842.042 397.041 842.496 397.04C852.206 397.011 860.051 388.459 860.02 377.938C859.988 367.417 852.091 358.912 842.382 358.941C841.927 358.943 841.476 358.963 841.03 359.001L841.144 396.989Z" fill="#EE2914"/>
<path fill-rule="evenodd" clip-rule="evenodd" d="M840.915 320.791C841.362 320.826 841.813 320.844 842.268 320.842C851.977 320.813 859.823 312.261 859.791 301.74C859.759 291.22 851.863 282.715 842.154 282.744C841.699 282.745 841.247 282.765 840.801 282.803L840.915 320.791Z" fill="#EE2914"/>
<path fill-rule="evenodd" clip-rule="evenodd" d="M841.258 435.087C841.705 435.122 842.156 435.14 842.611 435.138C852.32 435.109 860.165 426.557 860.134 416.036C860.102 405.516 852.206 397.01 842.496 397.04C842.041 397.041 841.591 397.061 841.144 397.099L841.258 435.087Z" fill="#EE2914"/>
<path fill-rule="evenodd" clip-rule="evenodd" d="M841.03 358.89C841.476 358.925 841.927 358.942 842.382 358.941C852.092 358.912 859.937 350.36 859.905 339.839C859.874 329.318 851.977 320.813 842.268 320.842C841.813 320.844 841.362 320.864 840.916 320.902L841.03 358.89Z" fill="#EE2914"/>
<rect x="893.916" y="24" width="16" height="16" transform="rotate(43.0164 893.916 24)" fill="#9DCCC9"/>
<rect x="894.223" y="129.307" width="16" height="16" transform="rotate(43.0164 894.223 129.307)" fill="#9DCCC9"/>
<rect x="894.223" y="76.3069" width="16" height="16" transform="rotate(43.0164 894.223 76.3069)" fill="#9DCCC9"/>
<rect x="894.53" y="181.614" width="16" height="16" transform="rotate(43.0164 894.53 181.614)" fill="#9DCCC9"/>
<rect x="894.223" y="51.3069" width="16" height="16" transform="rotate(43.0164 894.223 51.3069)" fill="#9DCCC9"/>
<rect x="894.53" y="156.614" width="16" height="16" transform="rotate(43.0164 894.53 156.614)" fill="#9DCCC9"/>
<rect x="894.53" y="103.614" width="16" height="16" transform="rotate(43.0164 894.53 103.614)" fill="#9DCCC9"/>
<rect x="894.837" y="208.921" width="16" height="16" transform="rotate(43.0164 894.837 208.921)" fill="#9DCCC9"/>
<rect x="894.916" y="210" width="16" height="16" transform="rotate(43.0164 894.916 210)" fill="#9DCCC9"/>
<rect x="895.223" y="315.307" width="16" height="16" transform="rotate(43.0164 895.223 315.307)" fill="#9DCCC9"/>
<rect x="895.223" y="262.307" width="16" height="16" transform="rotate(43.0164 895.223 262.307)" fill="#9DCCC9"/>
<rect x="895.53" y="367.614" width="16" height="16" transform="rotate(43.0164 895.53 367.614)" fill="#9DCCC9"/>
<rect x="895.223" y="237.307" width="16" height="16" transform="rotate(43.0164 895.223 237.307)" fill="#9DCCC9"/>
<rect x="895.53" y="342.614" width="16" height="16" transform="rotate(43.0164 895.53 342.614)" fill="#9DCCC9"/>
<rect x="895.53" y="289.614" width="16" height="16" transform="rotate(43.0164 895.53 289.614)" fill="#9DCCC9"/>
<rect x="895.837" y="394.921" width="16" height="16" transform="rotate(43.0164 895.837 394.921)" fill="#9DCCC9"/>
<line x1="819.5" y1="8.9932" x2="821.495" y2="448.993" stroke="white" stroke-width="3" stroke-dasharray="6 6"/>
<line x1="962.5" y1="5.9932" x2="964.495" y2="445.993" stroke="#EE2914" stroke-width="3" stroke-dasharray="6 6"/>
<path d="M773 448L694.5 406.5L724 350.5L785 374V448H773Z" fill="#EE2914"/>
<path d="M785 299.5L738.5 291L736.5 229.5L785 231.5V299.5Z" fill="#EE2914"/>
<path d="M736.5 171.5L785 161.5V86L738.5 103L736.5 171.5Z" fill="#EE2914"/>
<path d="M785 3.5L693.5 57L614.5 47L661 3.5H785Z" fill="#EE2914"/>
<path d="M519.5 3.5H577.5L549.5 50H492.5L519.5 3.5Z" fill="#EE2914"/>
<path d="M461.5 42L474 3.5H425.5L422.5 42H461.5Z" fill="#EE2914"/>
<path d="M358 39H393.5V3.5H351L358 39Z" fill="#EE2914"/>
<path d="M278 39H320.5L310.5 3.5H260L278 39Z" fill="#EE2914"/>
<path d="M162 39H229L200 3.5H124.5L162 39Z" fill="#EE2914"/>
<path d="M55 35.5L90 57L51.5 107L0 85H20V73.5H0V53C18.8 61.8 44.5 45 55 35.5Z" fill="#EE2914"/>
<path d="M20 164.5L51.5 170.5V232L17.5 233L3 232V214.5H20V199.5H0V183.5H20V164.5Z" fill="#EE2914"/>
<path d="M51.5 290.5L20 295.5V314H3V330.5H20V345H3V362.5H20V370.5L51.5 356.5V290.5Z" fill="#EE2914"/>
<path d="M56 423.5L95 403L170 419.5L136 449H62.5L56 423.5Z" fill="#EE2914"/>
<path d="M231.5 419.5L207.5 449H266L280.5 419.5H231.5Z" fill="#EE2914"/>
<path d="M310.5 449L324 419.5H357V449H310.5Z" fill="#EE2914"/>
<path d="M393.5 449V419.5H426.5L432.5 449H393.5Z" fill="#EE2914"/>
<path d="M461.5 419.5L471.5 449H519.5L500.5 419.5H461.5Z" fill="#EE2914"/>
<path d="M575.5 449L550 419.5H622L654.5 449H575.5Z" fill="#EE2914"/>
<path d="M98.6953 40C89.5423 73.939 63.418 85.2837 51.5 86.7137V368.426C86.968 380.629 97.7418 406.56 98.6953 418H689.351C699.267 382.536 725.582 373.67 737.5 373.67V86.7137C702.032 82.1377 690.622 53.6646 689.351 40H98.6953Z" fill="#F5D7B8" stroke="#9DCCC9" stroke-width="7"/>
<path d="M968.761 3C959.925 49.0516 1002.23 55.5589 1024.49 53.0561H1026.5V73.0786H1009.43V84.5915H1026.5V104.614H1009.43V118.63H1026.5V136.65H1009.43V152.167H1026.5V169.687H1009.43V184.704H1026.5V202.724H1009.43V216.74H1026.5V234.259H1009.43V249.276H1026.5V268.798H1009.43V283.314H1026.5V300.333H1009.43V316.351H1024.49V334.872H1009.43V347.386H1024.49V367.909H1009.43V382.926H1024.49V398.443C968.661 393.237 964.075 429.979 968.761 449H784.5V3H968.761Z" stroke="black" stroke-width="5"/>
<path d="M680.811 212.727L686.836 191.052L668.083 178.624L690.559 177.656L696.584 155.981L704.45 177.058L726.927 176.09L709.312 190.084L717.178 211.161L698.426 198.733L680.811 212.727Z" fill="#FFB932"/>
<path d="M294.873 169.466L299.044 154.457L286.059 145.851L301.623 145.181L305.795 130.172L311.242 144.767L326.805 144.097L314.608 153.787L320.055 168.381L307.07 159.776L294.873 169.466Z" fill="#FFB932"/>
<path d="M90.8723 132.589L95.0442 117.581L82.0592 108.975L97.6226 108.305L101.794 93.2958L107.241 107.89L122.805 107.22L110.608 116.91L116.054 131.505L103.069 122.899L90.8723 132.589Z" fill="#FFB932"/>
<path d="M358.889 300C363.981 290.458 372.299 223.327 368.565 187H353.796C356.648 227.178 349.722 281.92 337.5 300H358.889Z" fill="#EE2914"/>
<path d="M323.103 186.5C345.99 183.111 379.29 152.552 394.5 136C414.5 166.4 460.833 182.333 481.5 186.5H452C426.4 186.5 403 152.833 394.5 136C400.5 155 420.5 179 431 186.5H415C404.6 182.9 397 151.333 394.5 136C394.5 149.2 383.833 175.167 378.5 186.5H358C373.2 180.9 388.667 150.5 394.5 136C378.1 164.8 355.333 181.667 346 186.5H323.103C320.409 186.899 317.859 186.921 315.5 186.5H323.103Z" fill="#EE2914"/>
<path d="M324 299.5H309.5C312.5 292.5 324 253 324 221.5C323.798 204.741 322.5 197.5 316.5 187H333.5C343.9 223.8 331.5 277.333 324 299.5Z" fill="#EE2914"/>
<path d="M426.5 299.5C421.5 290 413.333 223.167 417 187H431.5H451H470.5C457.7 210.6 464.5 277 480 299.5H464.5C442 261 447.5 221.5 451 187H431.5C428.7 227 435.5 281.5 447.5 299.5H426.5Z" fill="#EE2914"/>
<rect x="307.5" y="186" width="178" height="11" fill="black"/>
<path d="M392.5 209L412.419 298.25H372.581L392.5 209Z" fill="black"/>
<path d="M61.6513 3H784.5L783.999 449H61.6513C54.4329 393.338 19.2094 393.771 2.5 400.946V379.422H20.0449V362.903H2.5V344.383H20.0449V331.368H2.5V311.846H20.0449V295.828H2.5V276.807H20.0449V263.292H2.5V245.772H20.0449V231.256H2.5V214.237H20.0449V199.721H2.5V183.202H20.0449V166.183H2.5V150.165H20.0449V133.646H2.5V116.627H20.0449V102.612H2.5V84.5915H20.0449V74.0797H2.5V54.0572C56.2374 57.6613 64.3248 21.5208 61.6513 3Z" stroke="black" stroke-width="5"/>
<path d="M394 122V110L423 108L415 116.5L423 122H394Z" fill="#FFB932"/>
</svg>
