<svg width="1027" height="451" viewBox="0 0 1027 451" fill="none" xmlns="http://www.w3.org/2000/svg">
<path d="M965.5 3H244.5L245 448.5H965.5C972.7 392.9 1007.83 393.333 1024.5 400.5V379H1007V362.5H1024.5V344H1007V331H1024.5V311.5H1007V295.5H1024.5V276.5H1007V263H1024.5V245.5H1007V231H1024.5V214H1007V199.5H1024.5V183H1007V166H1024.5V150H1007V133.5H1024.5V116.5H1007V102.5H1024.5V84.5H1007V74H1024.5V54C970.9 57.6 962.833 21.5 965.5 3Z" fill="#9DCCC9" stroke="black" stroke-width="5"/>
<path d="M60.5 3C69.3 49 27.1667 55.5 5 53H3V73H20V84.5H3V104.5H20V118.5H3V136.5H20V152H3V169.5H20V184.5H3V202.5H20V216.5H3V234H20V249H3V268.5H20V283H3V300H20V316H5V334.5H20V347H5V367.5H20V382.5H5V398C60.6 392.8 65.1667 429.5 60.5 448.5H244V3H60.5Z" fill="#EE2914" stroke="black" stroke-width="5"/>
<path d="M35.5 373.5V75C71.1 75 83 41 84.5 24H169.5C175 40.5 198 65.6667 216.5 75V373.5C190.1 373.5 172 408.5 168.5 425.5H84.5C84.9 401.9 53.5 368.5 35.5 373.5Z" fill="#F0EFE9"/>
<path d="M323 28.5C313.4 64.1 286 76 273.5 77.5V373C310.7 385.8 322 413 323 425H942.5C952.9 387.8 980.5 378.5 993 378.5V77.5C955.8 72.7 943.833 42.8333 942.5 28.5H323Z" fill="#EE2914" stroke="#F5D7B8" stroke-width="7"/>
<line x1="255.5" y1="5.4932" x2="257.495" y2="445.493" stroke="white" stroke-width="3" stroke-dasharray="6 6"/>
<path d="M531.363 294.072L524.633 260.708L509.258 263.809L490.153 169.097L501.838 166.74L500.691 161.051L457.64 169.735L458.787 175.424L468.32 173.501L487.425 268.213L454.368 274.881L435.263 180.169L444.796 178.246L443.648 172.557L400.751 181.21L401.899 186.899L413.584 184.542L432.689 279.254L421.003 281.611L422.151 287.3L496.875 272.227C505.485 270.491 511.854 271.126 515.95 273.98C520.077 276.988 523.162 282.766 524.899 291.376L525.674 295.22L531.363 294.072Z" fill="#F5D7B8"/>
<path d="M586.095 256.991L574.342 257.505L573.699 242.775L609.531 182.492L612.734 255.828L600.982 256.341L601.235 262.139L646.991 260.14L646.738 254.342L634.986 254.856L630.769 158.328L642.521 157.815L642.268 152.017L596.512 154.016L596.765 159.813L608.517 159.3L609.01 170.582L573.179 230.866L570.126 160.977L581.878 160.464L581.625 154.666L535.868 156.665L536.122 162.463L548.031 161.942L552.248 258.47L540.338 258.99L540.592 264.788L586.348 262.789L586.095 256.991Z" fill="#F5D7B8"/>
<path d="M717.728 266.201L718.271 260.423L700.625 258.764L704.266 220.036L709.575 220.535C723.786 221.871 735.138 220.102 743.489 215.058C751.826 210.171 756.635 202.588 757.604 192.281C758.543 182.287 755.188 174.41 747.879 168.366C740.57 162.322 729.419 158.596 714.428 157.187L676.324 153.605L675.781 159.382L687.65 160.498L678.606 256.694L666.738 255.578L666.195 261.356L717.728 266.201ZM734.945 190.309C734.065 199.678 731.559 206.217 727.415 210.081C723.271 213.945 717.302 215.432 709.494 214.698L704.809 214.258L709.668 162.568L714.197 162.994C722.161 163.743 727.748 166.316 731.129 170.572C734.51 174.829 735.782 181.408 734.945 190.309Z" fill="#F5D7B8"/>
<path d="M865.436 189.546C862.276 189.263 859.694 189.928 857.384 191.466C855.037 193.156 853.683 195.41 852.981 198.306C852.241 201.355 852.716 204.052 854.406 206.399C856.097 208.746 858.618 210.326 861.972 211.14C865.63 212.027 868.785 211.663 871.474 209.894C874.01 208.089 875.854 205.147 876.889 200.879C877.999 196.306 877.362 192.278 875.284 188.868C873.169 185.611 869.843 183.352 865.423 182.28C861.765 181.392 858.531 181.415 855.57 182.31C852.609 183.206 849.883 185.127 847.315 187.732C845.804 189.302 844.335 191.366 842.828 193.583C841.285 195.953 839.104 199.62 836.59 204.659C831.822 213.671 828.019 219.365 825.03 221.707C821.888 224.011 818.507 224.643 814.849 223.756L808.599 222.24L819.028 179.255L830.003 181.918L831.371 176.278L787.777 165.701L786.408 171.341L797.993 174.152L775.212 268.047L763.628 265.237L762.26 270.877L806.311 281.564L807.68 275.924L796.248 273.151L807.194 228.032L811.31 229.03C814.206 229.733 816.538 231.429 818.228 233.776C819.882 236.275 821.123 239.804 821.917 244.516C822.318 247.519 822.65 251.473 822.839 256.683C823.027 261.894 823.198 264.518 823.198 264.518C823.566 273.645 825.209 280.177 827.823 284.039C830.4 288.054 834.603 290.688 840.242 292.056C846.34 293.535 851.356 292.815 854.987 289.823C858.619 286.83 861.692 280.151 864.132 270.091L858.797 268.797C857.318 274.894 855.788 279.203 854.324 281.915C852.822 284.778 851.422 285.891 849.898 285.521C848.526 285.189 847.57 284.472 847.104 283.068C846.485 281.627 846.075 277.331 845.91 270.028C845.551 262.193 845.131 256.604 844.615 253.412C843.908 250.336 842.823 247.49 841.322 245.028C839.785 242.718 837.6 240.412 834.806 237.959C832.012 235.506 827.615 232.341 821.805 228.349C825.569 228.132 829.02 226.548 832.157 223.597C835.257 220.799 839.097 214.951 843.639 206.208C847.918 197.885 851.305 192.573 854.104 190.347C856.867 188.274 859.791 187.531 863.145 188.344C863.602 188.455 864.022 188.718 864.327 188.792C864.595 189.019 865.015 189.282 865.436 189.546Z" fill="#F5D7B8"/>
<path d="M345.5 39L346.959 43.4914H351.682L347.861 46.2672L349.321 50.7586L345.5 47.9828L341.679 50.7586L343.139 46.2672L339.318 43.4914H344.041L345.5 39Z" fill="#FFB932"/>
<path d="M362.5 39L363.959 43.4914H368.682L364.861 46.2672L366.321 50.7586L362.5 47.9828L358.679 50.7586L360.139 46.2672L356.318 43.4914H361.041L362.5 39Z" fill="#FFB932"/>
<path d="M379.5 39L380.959 43.4914H385.682L381.861 46.2672L383.321 50.7586L379.5 47.9828L375.679 50.7586L377.139 46.2672L373.318 43.4914H378.041L379.5 39Z" fill="#FFB932"/>
<path d="M396.5 39L397.959 43.4914H402.682L398.861 46.2672L400.321 50.7586L396.5 47.9828L392.679 50.7586L394.139 46.2672L390.318 43.4914H395.041L396.5 39Z" fill="#FFB932"/>
<path d="M413.5 39L414.959 43.4914H419.682L415.861 46.2672L417.321 50.7586L413.5 47.9828L409.679 50.7586L411.139 46.2672L407.318 43.4914H412.041L413.5 39Z" fill="#FFB932"/>
<path d="M430.5 39L431.959 43.4914H436.682L432.861 46.2672L434.321 50.7586L430.5 47.9828L426.679 50.7586L428.139 46.2672L424.318 43.4914H429.041L430.5 39Z" fill="#FFB932"/>
<path d="M447.5 39L448.959 43.4914H453.682L449.861 46.2672L451.321 50.7586L447.5 47.9828L443.679 50.7586L445.139 46.2672L441.318 43.4914H446.041L447.5 39Z" fill="#FFB932"/>
<path d="M464.5 39L465.959 43.4914H470.682L466.861 46.2672L468.321 50.7586L464.5 47.9828L460.679 50.7586L462.139 46.2672L458.318 43.4914H463.041L464.5 39Z" fill="#FFB932"/>
<path d="M481.5 39L482.959 43.4914H487.682L483.861 46.2672L485.321 50.7586L481.5 47.9828L477.679 50.7586L479.139 46.2672L475.318 43.4914H480.041L481.5 39Z" fill="#FFB932"/>
<path d="M498.5 39L499.959 43.4914H504.682L500.861 46.2672L502.321 50.7586L498.5 47.9828L494.679 50.7586L496.139 46.2672L492.318 43.4914H497.041L498.5 39Z" fill="#FFB932"/>
<path d="M515.5 39L516.959 43.4914H521.682L517.861 46.2672L519.321 50.7586L515.5 47.9828L511.679 50.7586L513.139 46.2672L509.318 43.4914H514.041L515.5 39Z" fill="#FFB932"/>
<path d="M532.5 39L533.959 43.4914H538.682L534.861 46.2672L536.321 50.7586L532.5 47.9828L528.679 50.7586L530.139 46.2672L526.318 43.4914H531.041L532.5 39Z" fill="#FFB932"/>
<path d="M549.5 39L550.959 43.4914H555.682L551.861 46.2672L553.321 50.7586L549.5 47.9828L545.679 50.7586L547.139 46.2672L543.318 43.4914H548.041L549.5 39Z" fill="#FFB932"/>
<path d="M566.5 39L567.959 43.4914H572.682L568.861 46.2672L570.321 50.7586L566.5 47.9828L562.679 50.7586L564.139 46.2672L560.318 43.4914H565.041L566.5 39Z" fill="#FFB932"/>
<path d="M583.5 39L584.959 43.4914H589.682L585.861 46.2672L587.321 50.7586L583.5 47.9828L579.679 50.7586L581.139 46.2672L577.318 43.4914H582.041L583.5 39Z" fill="#FFB932"/>
<path d="M600.5 39L601.959 43.4914H606.682L602.861 46.2672L604.321 50.7586L600.5 47.9828L596.679 50.7586L598.139 46.2672L594.318 43.4914H599.041L600.5 39Z" fill="#FFB932"/>
<path d="M617.5 39L618.959 43.4914H623.682L619.861 46.2672L621.321 50.7586L617.5 47.9828L613.679 50.7586L615.139 46.2672L611.318 43.4914H616.041L617.5 39Z" fill="#FFB932"/>
<path d="M634.5 39L635.959 43.4914H640.682L636.861 46.2672L638.321 50.7586L634.5 47.9828L630.679 50.7586L632.139 46.2672L628.318 43.4914H633.041L634.5 39Z" fill="#FFB932"/>
<path d="M651.5 39L652.959 43.4914H657.682L653.861 46.2672L655.321 50.7586L651.5 47.9828L647.679 50.7586L649.139 46.2672L645.318 43.4914H650.041L651.5 39Z" fill="#FFB932"/>
<path d="M668.5 39L669.959 43.4914H674.682L670.861 46.2672L672.321 50.7586L668.5 47.9828L664.679 50.7586L666.139 46.2672L662.318 43.4914H667.041L668.5 39Z" fill="#FFB932"/>
<path d="M685.5 39L686.959 43.4914H691.682L687.861 46.2672L689.321 50.7586L685.5 47.9828L681.679 50.7586L683.139 46.2672L679.318 43.4914H684.041L685.5 39Z" fill="#FFB932"/>
<path d="M702.5 39L703.959 43.4914H708.682L704.861 46.2672L706.321 50.7586L702.5 47.9828L698.679 50.7586L700.139 46.2672L696.318 43.4914H701.041L702.5 39Z" fill="#FFB932"/>
<path d="M719.5 39L720.959 43.4914H725.682L721.861 46.2672L723.321 50.7586L719.5 47.9828L715.679 50.7586L717.139 46.2672L713.318 43.4914H718.041L719.5 39Z" fill="#FFB932"/>
<path d="M736.5 39L737.959 43.4914H742.682L738.861 46.2672L740.321 50.7586L736.5 47.9828L732.679 50.7586L734.139 46.2672L730.318 43.4914H735.041L736.5 39Z" fill="#FFB932"/>
<path d="M753.5 39L754.959 43.4914H759.682L755.861 46.2672L757.321 50.7586L753.5 47.9828L749.679 50.7586L751.139 46.2672L747.318 43.4914H752.041L753.5 39Z" fill="#FFB932"/>
<path d="M324.901 246.482L347.375 247.508L355.295 226.451L361.264 248.142L383.738 249.167L364.953 261.547L370.923 283.238L353.344 269.198L334.56 281.578L342.48 260.522L324.901 246.482Z" fill="#FFB932"/>
<path d="M915.777 315.194L921.802 293.519L903.049 281.091L925.526 280.123L931.551 258.447L939.417 279.524L961.893 278.556L944.278 292.551L952.144 313.628L933.392 301.2L915.777 315.194Z" fill="#FFB932"/>
<path d="M863.937 145.476L874.9 136.767L886.57 144.501L881.675 131.384L892.637 122.675L878.649 123.277L873.754 110.16L870.004 123.649L856.016 124.252L867.687 131.986L863.937 145.476Z" fill="#FFB932"/>
<path d="M638.063 322.272L649.026 313.563L660.696 321.297L655.801 308.18L666.763 299.471L652.775 300.073L647.88 286.956L644.13 300.445L630.142 301.048L641.813 308.782L638.063 322.272Z" fill="#FFB932"/>
<path d="M333.8 128.393L340.899 123.794L347.467 129.124L345.286 120.951L352.385 116.352L343.938 115.9L341.757 107.728L338.718 115.621L330.271 115.17L336.839 120.5L333.8 128.393Z" fill="#FFB932"/>
<path d="M481.063 345.272L492.026 336.563L503.696 344.297L498.801 331.18L509.763 322.471L495.775 323.073L490.88 309.956L487.13 323.445L473.142 324.048L484.813 331.782L481.063 345.272Z" fill="#FFB932"/>
<path d="M770.5 39L771.959 43.4914H776.682L772.861 46.2672L774.321 50.7586L770.5 47.9828L766.679 50.7586L768.139 46.2672L764.318 43.4914H769.041L770.5 39Z" fill="#FFB932"/>
<path d="M787.5 39L788.959 43.4914H793.682L789.861 46.2672L791.321 50.7586L787.5 47.9828L783.679 50.7586L785.139 46.2672L781.318 43.4914H786.041L787.5 39Z" fill="#FFB932"/>
<path d="M804.5 39L805.959 43.4914H810.682L806.861 46.2672L808.321 50.7586L804.5 47.9828L800.679 50.7586L802.139 46.2672L798.318 43.4914H803.041L804.5 39Z" fill="#FFB932"/>
<path d="M821.5 39L822.959 43.4914H827.682L823.861 46.2672L825.321 50.7586L821.5 47.9828L817.679 50.7586L819.139 46.2672L815.318 43.4914H820.041L821.5 39Z" fill="#FFB932"/>
<path d="M838.5 39L839.959 43.4914H844.682L840.861 46.2672L842.321 50.7586L838.5 47.9828L834.679 50.7586L836.139 46.2672L832.318 43.4914H837.041L838.5 39Z" fill="#FFB932"/>
<path d="M855.5 39L856.959 43.4914H861.682L857.861 46.2672L859.321 50.7586L855.5 47.9828L851.679 50.7586L853.139 46.2672L849.318 43.4914H854.041L855.5 39Z" fill="#FFB932"/>
<path d="M872.5 39L873.959 43.4914H878.682L874.861 46.2672L876.321 50.7586L872.5 47.9828L868.679 50.7586L870.139 46.2672L866.318 43.4914H871.041L872.5 39Z" fill="#FFB932"/>
<path d="M889.5 39L890.959 43.4914H895.682L891.861 46.2672L893.321 50.7586L889.5 47.9828L885.679 50.7586L887.139 46.2672L883.318 43.4914H888.041L889.5 39Z" fill="#FFB932"/>
<path d="M906.5 39L907.959 43.4914H912.682L908.861 46.2672L910.321 50.7586L906.5 47.9828L902.679 50.7586L904.139 46.2672L900.318 43.4914H905.041L906.5 39Z" fill="#FFB932"/>
<path d="M923.5 39L924.959 43.4914H929.682L925.861 46.2672L927.321 50.7586L923.5 47.9828L919.679 50.7586L921.139 46.2672L917.318 43.4914H922.041L923.5 39Z" fill="#FFB932"/>
</svg>
